<?xml version="1.0" encoding="UTF-8" standalone="no"?><svg xmlns="http://www.w3.org/2000/svg" xmlns:xlink="http://www.w3.org/1999/xlink" contentScriptType="application/ecmascript" contentStyleType="text/css" height="2034px" preserveAspectRatio="none" style="width:3740px;height:2034px;background:#FFFFFF;" version="1.1" viewBox="0 0 3740 2034" width="3740px" zoomAndPan="magnify"><defs><filter height="300%" id="ff53z878fmo21" width="300%" x="-1" y="-1"><feGaussianBlur result="blurOut" stdDeviation="2.0"/><feColorMatrix in="blurOut" result="blurOut2" type="matrix" values="0 0 0 0 0 0 0 0 0 0 0 0 0 0 0 0 0 0 .4 0"/><feOffset dx="4.0" dy="4.0" in="blurOut2" result="blurOut3"/><feBlend in="SourceGraphic" in2="blurOut3" mode="normal"/></filter></defs><g><rect fill="#FFFFFF" filter="url(#ff53z878fmo21)" height="675.3848" style="stroke:#A80036;stroke-width:1.0;" width="10" x="75.5" y="54.4883"/><rect fill="#FFFFFF" filter="url(#ff53z878fmo21)" height="265.7607" style="stroke:#A80036;stroke-width:1.0;" width="10" x="737" y="485.4229"/><rect fill="#FFFFFF" filter="url(#ff53z878fmo21)" height="331.416" style="stroke:#A80036;stroke-width:1.0;" width="10" x="1009" y="751.1836"/><rect fill="#FFFFFF" filter="url(#ff53z878fmo21)" height="644.9375" style="stroke:#A80036;stroke-width:1.0;" width="10" x="1482.5" y="879.7363"/><rect fill="#FFFFFF" filter="url(#ff53z878fmo21)" height="220.1396" style="stroke:#A80036;stroke-width:1.0;" width="10" x="2671.5" y="1553.9844"/><rect fill="#FFFFFF" filter="url(#ff53z878fmo21)" height="87.8975" style="stroke:#A80036;stroke-width:1.0;" width="10" x="3315.5" y="1774.124"/><rect fill="#FFFFFF" filter="url(#ff53z878fmo21)" height="115.2422" style="stroke:#A80036;stroke-width:1.0;" width="10" x="3607" y="1862.0215"/><rect fill="#FFFFFF" filter="url(#ff53z878fmo21)" height="59.6211" style="stroke:#000000;stroke-width:2.0;" width="191" x="10" y="148.4199"/><rect fill="#FFFFFF" filter="url(#ff53z878fmo21)" height="59.6211" style="stroke:#000000;stroke-width:2.0;" width="279.5" x="10" y="589.6309"/><rect fill="#FFFFFF" filter="url(#ff53z878fmo21)" height="59.6211" style="stroke:#000000;stroke-width:2.0;" width="334" x="10" y="663.252"/><rect fill="#FFFFFF" filter="url(#ff53z878fmo21)" height="59.6211" style="stroke:#000000;stroke-width:2.0;" width="288" x="935" y="894.7363"/><rect fill="#FFFFFF" filter="url(#ff53z878fmo21)" height="107.2422" style="stroke:#000000;stroke-width:2.0;" width="687" x="416" y="968.3574"/><rect fill="#FFFFFF" filter="url(#ff53z878fmo21)" height="46.6211" style="stroke:#000000;stroke-width:2.0;" width="667" x="426" y="1021.9785"/><rect fill="#FFFFFF" filter="url(#ff53z878fmo21)" height="46.6211" style="stroke:#000000;stroke-width:2.0;" width="1199" x="1590.5" y="1640.6055"/><rect fill="#FFFFFF" filter="url(#ff53z878fmo21)" height="93.2422" style="stroke:#000000;stroke-width:2.0;" width="3300.5" x="426" y="1877.0215"/><rect fill="#FFFFFF" height="46.6211" style="stroke:none;stroke-width:1.0;" width="3300.5" x="426" y="1923.6426"/><line style="stroke:#A80036;stroke-width:1.0;stroke-dasharray:5.0,5.0;" x1="80" x2="80" y1="44.4883" y2="1987.2637"/><line style="stroke:#A80036;stroke-width:1.0;stroke-dasharray:5.0,5.0;" x1="365" x2="365" y1="44.4883" y2="1987.2637"/><line style="stroke:#A80036;stroke-width:1.0;stroke-dasharray:5.0,5.0;" x1="487" x2="487" y1="44.4883" y2="1987.2637"/><line style="stroke:#A80036;stroke-width:1.0;stroke-dasharray:5.0,5.0;" x1="742" x2="742" y1="44.4883" y2="1987.2637"/><line style="stroke:#A80036;stroke-width:1.0;stroke-dasharray:5.0,5.0;" x1="1014" x2="1014" y1="44.4883" y2="1987.2637"/><line style="stroke:#A80036;stroke-width:1.0;stroke-dasharray:5.0,5.0;" x1="1274.5" x2="1274.5" y1="44.4883" y2="1987.2637"/><line style="stroke:#A80036;stroke-width:1.0;stroke-dasharray:5.0,5.0;" x1="1487.5" x2="1487.5" y1="44.4883" y2="1987.2637"/><line style="stroke:#A80036;stroke-width:1.0;stroke-dasharray:5.0,5.0;" x1="1678.5" x2="1678.5" y1="44.4883" y2="1987.2637"/><line style="stroke:#A80036;stroke-width:1.0;stroke-dasharray:5.0,5.0;" x1="1846.5" x2="1846.5" y1="44.4883" y2="1987.2637"/><line style="stroke:#A80036;stroke-width:1.0;stroke-dasharray:5.0,5.0;" x1="2088.5" x2="2088.5" y1="44.4883" y2="1987.2637"/><line style="stroke:#A80036;stroke-width:1.0;stroke-dasharray:5.0,5.0;" x1="2407.5" x2="2407.5" y1="44.4883" y2="1987.2637"/><line style="stroke:#A80036;stroke-width:1.0;stroke-dasharray:5.0,5.0;" x1="2676.5" x2="2676.5" y1="44.4883" y2="1987.2637"/><line style="stroke:#A80036;stroke-width:1.0;stroke-dasharray:5.0,5.0;" x1="2961.5" x2="2961.5" y1="44.4883" y2="1987.2637"/><line style="stroke:#A80036;stroke-width:1.0;stroke-dasharray:5.0,5.0;" x1="3320.5" x2="3320.5" y1="44.4883" y2="1987.2637"/><line style="stroke:#A80036;stroke-width:1.0;stroke-dasharray:5.0,5.0;" x1="3611.5" x2="3611.5" y1="44.4883" y2="1987.2637"/><rect fill="#FEFECE" filter="url(#ff53z878fmo21)" height="30.4883" style="stroke:#A80036;stroke-width:1.5;" width="117" x="20" y="9"/><text fill="#000000" font-family="sans-serif" font-size="14" lengthAdjust="spacing" textLength="103" x="27" y="29.5352">cron-recurring</text><rect fill="#FEFECE" filter="url(#ff53z878fmo21)" height="30.4883" style="stroke:#A80036;stroke-width:1.5;" width="117" x="20" y="1986.2637"/><text fill="#000000" font-family="sans-serif" font-size="14" lengthAdjust="spacing" textLength="103" x="27" y="2006.7988">cron-recurring</text><rect fill="#FEFECE" filter="url(#ff53z878fmo21)" height="30.4883" style="stroke:#A80036;stroke-width:1.5;" width="117" x="305" y="9"/><text fill="#000000" font-family="sans-serif" font-size="14" lengthAdjust="spacing" textLength="103" x="312" y="29.5352">ms-eod-status</text><rect fill="#FEFECE" filter="url(#ff53z878fmo21)" height="30.4883" style="stroke:#A80036;stroke-width:1.5;" width="117" x="305" y="1986.2637"/><text fill="#000000" font-family="sans-serif" font-size="14" lengthAdjust="spacing" textLength="103" x="312" y="2006.7988">ms-eod-status</text><rect fill="#FEFECE" filter="url(#ff53z878fmo21)" height="30.4883" style="stroke:#A80036;stroke-width:1.5;" width="95" x="440" y="5"/><rect fill="#FEFECE" filter="url(#ff53z878fmo21)" height="30.4883" style="stroke:#A80036;stroke-width:1.5;" width="95" x="436" y="9"/><text fill="#000000" font-family="sans-serif" font-size="14" lengthAdjust="spacing" textLength="81" x="443" y="29.5352">instructions</text><rect fill="#FEFECE" filter="url(#ff53z878fmo21)" height="30.4883" style="stroke:#A80036;stroke-width:1.5;" width="95" x="440" y="1986.2637"/><rect fill="#FEFECE" filter="url(#ff53z878fmo21)" height="30.4883" style="stroke:#A80036;stroke-width:1.5;" width="95" x="436" y="1990.2637"/><text fill="#000000" font-family="sans-serif" font-size="14" lengthAdjust="spacing" textLength="81" x="443" y="2010.7988">instructions</text><path d="M554,18 L930,18 C935,18 935,31.2441 935,31.2441 C935,31.2441 935,44.4883 930,44.4883 L554,44.4883 C549,44.4883 549,31.2441 549,31.2441 C549,31.2441 549,18 554,18 " fill="#FEFECE" filter="url(#ff53z878fmo21)" style="stroke:#A80036;stroke-width:2.0;"/><path d="M930,18 C925,18 925,31.2441 925,31.2441 C925,44.4883 930,44.4883 930,44.4883 " fill="none" style="stroke:#A80036;stroke-width:2.0;"/><text fill="#000000" font-family="sans-serif" font-size="14" lengthAdjust="spacing" textLength="366" x="554" y="36.5352">ID.JENIUS.RECURRING.INSTRUCTIONS.MUTUAL_FUNDS</text><path d="M554,1986.2637 L930,1986.2637 C935,1986.2637 935,1999.5078 935,1999.5078 C935,1999.5078 935,2012.752 930,2012.752 L554,2012.752 C549,2012.752 549,1999.5078 549,1999.5078 C549,1999.5078 549,1986.2637 554,1986.2637 " fill="#FEFECE" filter="url(#ff53z878fmo21)" style="stroke:#A80036;stroke-width:2.0;"/><path d="M930,1986.2637 C925,1986.2637 925,1999.5078 925,1999.5078 C925,2012.752 930,2012.752 930,2012.752 " fill="none" style="stroke:#A80036;stroke-width:2.0;"/><text fill="#000000" font-family="sans-serif" font-size="14" lengthAdjust="spacing" textLength="366" x="554" y="2004.7988">ID.JENIUS.RECURRING.INSTRUCTIONS.MUTUAL_FUNDS</text><rect fill="#FEFECE" filter="url(#ff53z878fmo21)" height="30.4883" style="stroke:#A80036;stroke-width:1.5;" width="134" x="945" y="9"/><text fill="#000000" font-family="sans-serif" font-size="14" lengthAdjust="spacing" textLength="120" x="952" y="29.5352">worker-recurring</text><rect fill="#FEFECE" filter="url(#ff53z878fmo21)" height="30.4883" style="stroke:#A80036;stroke-width:1.5;" width="134" x="945" y="1986.2637"/><text fill="#000000" font-family="sans-serif" font-size="14" lengthAdjust="spacing" textLength="120" x="952" y="2006.7988">worker-recurring</text><rect fill="#FEFECE" filter="url(#ff53z878fmo21)" height="30.4883" style="stroke:#A80036;stroke-width:1.5;" width="191" x="1179.5" y="5"/><rect fill="#FEFECE" filter="url(#ff53z878fmo21)" height="30.4883" style="stroke:#A80036;stroke-width:1.5;" width="191" x="1175.5" y="9"/><text fill="#000000" font-family="sans-serif" font-size="14" lengthAdjust="spacing" textLength="177" x="1182.5" y="29.5352">instructionConfigurations</text><rect fill="#FEFECE" filter="url(#ff53z878fmo21)" height="30.4883" style="stroke:#A80036;stroke-width:1.5;" width="191" x="1179.5" y="1986.2637"/><rect fill="#FEFECE" filter="url(#ff53z878fmo21)" height="30.4883" style="stroke:#A80036;stroke-width:1.5;" width="191" x="1175.5" y="1990.2637"/><text fill="#000000" font-family="sans-serif" font-size="14" lengthAdjust="spacing" textLength="177" x="1182.5" y="2010.7988">instructionConfigurations</text><rect fill="#FEFECE" filter="url(#ff53z878fmo21)" height="30.4883" style="stroke:#A80036;stroke-width:1.5;" width="202" x="1384.5" y="9"/><text fill="#000000" font-family="sans-serif" font-size="14" lengthAdjust="spacing" textLength="188" x="1391.5" y="29.5352">ms-investment-transaction</text><rect fill="#FEFECE" filter="url(#ff53z878fmo21)" height="30.4883" style="stroke:#A80036;stroke-width:1.5;" width="202" x="1384.5" y="1986.2637"/><text fill="#000000" font-family="sans-serif" font-size="14" lengthAdjust="spacing" textLength="188" x="1391.5" y="2006.7988">ms-investment-transaction</text><rect fill="#FEFECE" filter="url(#ff53z878fmo21)" height="30.4883" style="stroke:#A80036;stroke-width:1.5;" width="149" x="1604.5" y="5"/><rect fill="#FEFECE" filter="url(#ff53z878fmo21)" height="30.4883" style="stroke:#A80036;stroke-width:1.5;" width="149" x="1600.5" y="9"/><text fill="#000000" font-family="sans-serif" font-size="14" lengthAdjust="spacing" textLength="135" x="1607.5" y="29.5352">productInstructions</text><rect fill="#FEFECE" filter="url(#ff53z878fmo21)" height="30.4883" style="stroke:#A80036;stroke-width:1.5;" width="149" x="1604.5" y="1986.2637"/><rect fill="#FEFECE" filter="url(#ff53z878fmo21)" height="30.4883" style="stroke:#A80036;stroke-width:1.5;" width="149" x="1600.5" y="1990.2637"/><text fill="#000000" font-family="sans-serif" font-size="14" lengthAdjust="spacing" textLength="135" x="1607.5" y="2010.7988">productInstructions</text><rect fill="#FEFECE" filter="url(#ff53z878fmo21)" height="30.4883" style="stroke:#A80036;stroke-width:1.5;" width="151" x="1771.5" y="5"/><rect fill="#FEFECE" filter="url(#ff53z878fmo21)" height="30.4883" style="stroke:#A80036;stroke-width:1.5;" width="151" x="1767.5" y="9"/><text fill="#000000" font-family="sans-serif" font-size="14" lengthAdjust="spacing" textLength="137" x="1774.5" y="29.5352">inflightTransactions</text><rect fill="#FEFECE" filter="url(#ff53z878fmo21)" height="30.4883" style="stroke:#A80036;stroke-width:1.5;" width="151" x="1771.5" y="1986.2637"/><rect fill="#FEFECE" filter="url(#ff53z878fmo21)" height="30.4883" style="stroke:#A80036;stroke-width:1.5;" width="151" x="1767.5" y="1990.2637"/><text fill="#000000" font-family="sans-serif" font-size="14" lengthAdjust="spacing" textLength="137" x="1774.5" y="2010.7988">inflightTransactions</text><path d="M1941.5,18 L2236.5,18 C2241.5,18 2241.5,31.2441 2241.5,31.2441 C2241.5,31.2441 2241.5,44.4883 2236.5,44.4883 L1941.5,44.4883 C1936.5,44.4883 1936.5,31.2441 1936.5,31.2441 C1936.5,31.2441 1936.5,18 1941.5,18 " fill="#FEFECE" filter="url(#ff53z878fmo21)" style="stroke:#A80036;stroke-width:2.0;"/><path d="M2236.5,18 C2231.5,18 2231.5,31.2441 2231.5,31.2441 C2231.5,44.4883 2236.5,44.4883 2236.5,44.4883 " fill="none" style="stroke:#A80036;stroke-width:2.0;"/><text fill="#000000" font-family="sans-serif" font-size="14" lengthAdjust="spacing" textLength="285" x="1941.5" y="36.5352">ID.JENIUS.INVESTMENT.JOURNAL.REQUEST</text><path d="M1941.5,1986.2637 L2236.5,1986.2637 C2241.5,1986.2637 2241.5,1999.5078 2241.5,1999.5078 C2241.5,1999.5078 2241.5,2012.752 2236.5,2012.752 L1941.5,2012.752 C1936.5,2012.752 1936.5,1999.5078 1936.5,1999.5078 C1936.5,1999.5078 1936.5,1986.2637 1941.5,1986.2637 " fill="#FEFECE" filter="url(#ff53z878fmo21)" style="stroke:#A80036;stroke-width:2.0;"/><path d="M2236.5,1986.2637 C2231.5,1986.2637 2231.5,1999.5078 2231.5,1999.5078 C2231.5,2012.752 2236.5,2012.752 2236.5,2012.752 " fill="none" style="stroke:#A80036;stroke-width:2.0;"/><text fill="#000000" font-family="sans-serif" font-size="14" lengthAdjust="spacing" textLength="285" x="1941.5" y="2004.7988">ID.JENIUS.INVESTMENT.JOURNAL.REQUEST</text><path d="M2256.5,18 L2558.5,18 C2563.5,18 2563.5,31.2441 2563.5,31.2441 C2563.5,31.2441 2563.5,44.4883 2558.5,44.4883 L2256.5,44.4883 C2251.5,44.4883 2251.5,31.2441 2251.5,31.2441 C2251.5,31.2441 2251.5,18 2256.5,18 " fill="#FEFECE" filter="url(#ff53z878fmo21)" style="stroke:#A80036;stroke-width:2.0;"/><path d="M2558.5,18 C2553.5,18 2553.5,31.2441 2553.5,31.2441 C2553.5,44.4883 2558.5,44.4883 2558.5,44.4883 " fill="none" style="stroke:#A80036;stroke-width:2.0;"/><text fill="#000000" font-family="sans-serif" font-size="14" lengthAdjust="spacing" textLength="292" x="2256.5" y="36.5352">ID.JENIUS.INVESTMENT.JOURNAL.RESPONSE</text><path d="M2256.5,1986.2637 L2558.5,1986.2637 C2563.5,1986.2637 2563.5,1999.5078 2563.5,1999.5078 C2563.5,1999.5078 2563.5,2012.752 2558.5,2012.752 L2256.5,2012.752 C2251.5,2012.752 2251.5,1999.5078 2251.5,1999.5078 C2251.5,1999.5078 2251.5,1986.2637 2256.5,1986.2637 " fill="#FEFECE" filter="url(#ff53z878fmo21)" style="stroke:#A80036;stroke-width:2.0;"/><path d="M2558.5,1986.2637 C2553.5,1986.2637 2553.5,1999.5078 2553.5,1999.5078 C2553.5,2012.752 2558.5,2012.752 2558.5,2012.752 " fill="none" style="stroke:#A80036;stroke-width:2.0;"/><text fill="#000000" font-family="sans-serif" font-size="14" lengthAdjust="spacing" textLength="292" x="2256.5" y="2004.7988">ID.JENIUS.INVESTMENT.JOURNAL.RESPONSE</text><rect fill="#FEFECE" filter="url(#ff53z878fmo21)" height="30.4883" style="stroke:#A80036;stroke-width:1.5;" width="202" x="2573.5" y="9"/><text fill="#000000" font-family="sans-serif" font-size="14" lengthAdjust="spacing" textLength="188" x="2580.5" y="29.5352">worker-investment-journal</text><rect fill="#FEFECE" filter="url(#ff53z878fmo21)" height="30.4883" style="stroke:#A80036;stroke-width:1.5;" width="202" x="2573.5" y="1986.2637"/><text fill="#000000" font-family="sans-serif" font-size="14" lengthAdjust="spacing" textLength="188" x="2580.5" y="2006.7988">worker-investment-journal</text><path d="M2794.5,18 L3128.5,18 C3133.5,18 3133.5,31.2441 3133.5,31.2441 C3133.5,31.2441 3133.5,44.4883 3128.5,44.4883 L2794.5,44.4883 C2789.5,44.4883 2789.5,31.2441 2789.5,31.2441 C2789.5,31.2441 2789.5,18 2794.5,18 " fill="#FEFECE" filter="url(#ff53z878fmo21)" style="stroke:#A80036;stroke-width:2.0;"/><path d="M3128.5,18 C3123.5,18 3123.5,31.2441 3123.5,31.2441 C3123.5,44.4883 3128.5,44.4883 3128.5,44.4883 " fill="none" style="stroke:#A80036;stroke-width:2.0;"/><text fill="#000000" font-family="sans-serif" font-size="14" lengthAdjust="spacing" textLength="324" x="2794.5" y="36.5352">ID.JENIUS.INVESTMENT.TRANSACTION.REQUEST</text><path d="M2794.5,1986.2637 L3128.5,1986.2637 C3133.5,1986.2637 3133.5,1999.5078 3133.5,1999.5078 C3133.5,1999.5078 3133.5,2012.752 3128.5,2012.752 L2794.5,2012.752 C2789.5,2012.752 2789.5,1999.5078 2789.5,1999.5078 C2789.5,1999.5078 2789.5,1986.2637 2794.5,1986.2637 " fill="#FEFECE" filter="url(#ff53z878fmo21)" style="stroke:#A80036;stroke-width:2.0;"/><path d="M3128.5,1986.2637 C3123.5,1986.2637 3123.5,1999.5078 3123.5,1999.5078 C3123.5,2012.752 3128.5,2012.752 3128.5,2012.752 " fill="none" style="stroke:#A80036;stroke-width:2.0;"/><text fill="#000000" font-family="sans-serif" font-size="14" lengthAdjust="spacing" textLength="324" x="2794.5" y="2004.7988">ID.JENIUS.INVESTMENT.TRANSACTION.REQUEST</text><path d="M3148.5,18 L3492.5,18 C3497.5,18 3497.5,31.2441 3497.5,31.2441 C3497.5,31.2441 3497.5,44.4883 3492.5,44.4883 L3148.5,44.4883 C3143.5,44.4883 3143.5,31.2441 3143.5,31.2441 C3143.5,31.2441 3143.5,18 3148.5,18 " fill="#FEFECE" filter="url(#ff53z878fmo21)" style="stroke:#A80036;stroke-width:2.0;"/><path d="M3492.5,18 C3487.5,18 3487.5,31.2441 3487.5,31.2441 C3487.5,44.4883 3492.5,44.4883 3492.5,44.4883 " fill="none" style="stroke:#A80036;stroke-width:2.0;"/><text fill="#000000" font-family="sans-serif" font-size="14" lengthAdjust="spacing" textLength="334" x="3148.5" y="36.5352">ID.JENIUS.RECURRING.RESPONSE.MUTUAL_FUNDS</text><path d="M3148.5,1986.2637 L3492.5,1986.2637 C3497.5,1986.2637 3497.5,1999.5078 3497.5,1999.5078 C3497.5,1999.5078 3497.5,2012.752 3492.5,2012.752 L3148.5,2012.752 C3143.5,2012.752 3143.5,1999.5078 3143.5,1999.5078 C3143.5,1999.5078 3143.5,1986.2637 3148.5,1986.2637 " fill="#FEFECE" filter="url(#ff53z878fmo21)" style="stroke:#A80036;stroke-width:2.0;"/><path d="M3492.5,1986.2637 C3487.5,1986.2637 3487.5,1999.5078 3487.5,1999.5078 C3487.5,2012.752 3492.5,2012.752 3492.5,2012.752 " fill="none" style="stroke:#A80036;stroke-width:2.0;"/><text fill="#000000" font-family="sans-serif" font-size="14" lengthAdjust="spacing" textLength="334" x="3148.5" y="2004.7988">ID.JENIUS.RECURRING.RESPONSE.MUTUAL_FUNDS</text><rect fill="#FEFECE" filter="url(#ff53z878fmo21)" height="30.4883" style="stroke:#A80036;stroke-width:1.5;" width="205" x="3507.5" y="9"/><text fill="#000000" font-family="sans-serif" font-size="14" lengthAdjust="spacing" textLength="191" x="3514.5" y="29.5352">worker-recurring-response</text><rect fill="#FEFECE" filter="url(#ff53z878fmo21)" height="30.4883" style="stroke:#A80036;stroke-width:1.5;" width="205" x="3507.5" y="1986.2637"/><text fill="#000000" font-family="sans-serif" font-size="14" lengthAdjust="spacing" textLength="191" x="3514.5" y="2006.7988">worker-recurring-response</text><rect fill="#FFFFFF" filter="url(#ff53z878fmo21)" height="675.3848" style="stroke:#A80036;stroke-width:1.0;" width="10" x="75.5" y="54.4883"/><rect fill="#FFFFFF" filter="url(#ff53z878fmo21)" height="265.7607" style="stroke:#A80036;stroke-width:1.0;" width="10" x="737" y="485.4229"/><rect fill="#FFFFFF" filter="url(#ff53z878fmo21)" height="331.416" style="stroke:#A80036;stroke-width:1.0;" width="10" x="1009" y="751.1836"/><rect fill="#FFFFFF" filter="url(#ff53z878fmo21)" height="644.9375" style="stroke:#A80036;stroke-width:1.0;" width="10" x="1482.5" y="879.7363"/><rect fill="#FFFFFF" filter="url(#ff53z878fmo21)" height="220.1396" style="stroke:#A80036;stroke-width:1.0;" width="10" x="2671.5" y="1553.9844"/><rect fill="#FFFFFF" filter="url(#ff53z878fmo21)" height="87.8975" style="stroke:#A80036;stroke-width:1.0;" width="10" x="3315.5" y="1774.124"/><rect fill="#FFFFFF" filter="url(#ff53z878fmo21)" height="115.2422" style="stroke:#A80036;stroke-width:1.0;" width="10" x="3607" y="1862.0215"/><line style="stroke:#A80036;stroke-width:1.0;" x1="85.5" x2="127.5" y1="91.1094" y2="91.1094"/><line style="stroke:#A80036;stroke-width:1.0;" x1="127.5" x2="127.5" y1="91.1094" y2="104.1094"/><line style="stroke:#A80036;stroke-width:1.0;" x1="86.5" x2="127.5" y1="104.1094" y2="104.1094"/><polygon fill="#A80036" points="96.5,100.1094,86.5,104.1094,96.5,108.1094,92.5,104.1094" style="stroke:#A80036;stroke-width:1.0;"/><text fill="#000000" font-family="sans-serif" font-size="13" lengthAdjust="spacing" textLength="84" x="92.5" y="71.0566">run every day</text><text fill="#000000" font-family="sans-serif" font-size="13" lengthAdjust="spacing" textLength="149" x="96.5" y="86.3672">at 6am, 9am, and 12pm</text><polygon fill="#A80036" points="353.5,129.4199,363.5,133.4199,353.5,137.4199,357.5,133.4199" style="stroke:#A80036;stroke-width:1.0;"/><line style="stroke:#A80036;stroke-width:1.0;" x1="85.5" x2="359.5" y1="133.4199" y2="133.4199"/><text fill="#000000" font-family="sans-serif" font-size="13" lengthAdjust="spacing" textLength="127" x="92.5" y="128.6777">GET /eq/eod-status</text><path d="M10,148.4199 L72,148.4199 L72,155.4199 L62,165.4199 L10,165.4199 L10,148.4199 " fill="#EEEEEE" style="stroke:#000000;stroke-width:1.0;"/><rect fill="none" height="59.6211" style="stroke:#000000;stroke-width:2.0;" width="191" x="10" y="148.4199"/><text fill="#000000" font-family="sans-serif" font-size="13" font-weight="bold" lengthAdjust="spacing" textLength="17" x="25" y="161.9883">alt</text><text fill="#000000" font-family="sans-serif" font-size="11" font-weight="bold" lengthAdjust="spacing" textLength="109" x="87" y="161.0547">[isNightMode=true]</text><line style="stroke:#A80036;stroke-width:1.0;" x1="85.5" x2="127.5" y1="187.041" y2="187.041"/><line style="stroke:#A80036;stroke-width:1.0;" x1="127.5" x2="127.5" y1="187.041" y2="200.041"/><line style="stroke:#A80036;stroke-width:1.0;" x1="86.5" x2="127.5" y1="200.041" y2="200.041"/><polygon fill="#A80036" points="96.5,196.041,86.5,200.041,96.5,204.041,92.5,200.041" style="stroke:#A80036;stroke-width:1.0;"/><text fill="#000000" font-family="sans-serif" font-size="13" lengthAdjust="spacing" textLength="76" x="92.5" y="182.2988">end process</text><polygon fill="#A80036" points="475.5,278.2832,485.5,282.2832,475.5,286.2832,479.5,282.2832" style="stroke:#A80036;stroke-width:1.0;"/><line style="stroke:#A80036;stroke-width:1.0;" x1="85.5" x2="481.5" y1="282.2832" y2="282.2832"/><text fill="#000000" font-family="sans-serif" font-size="13" lengthAdjust="spacing" textLength="162" x="92.5" y="231.6094">query executeDate=today</text><text fill="#000000" font-family="sans-serif" font-size="13" lengthAdjust="spacing" textLength="94" x="92.5" y="246.9199">status=ACTIVE</text><text fill="#000000" font-family="sans-serif" font-size="13" lengthAdjust="spacing" textLength="119" x="92.5" y="262.2305">isProcessing=false</text><text fill="#000000" font-family="sans-serif" font-size="13" lengthAdjust="spacing" textLength="244" x="92.5" y="277.541">processingCode=MUTUAL_FUNDS_SUB</text><line style="stroke:#A80036;stroke-width:1.0;" x1="85.5" x2="127.5" y1="311.5938" y2="311.5938"/><line style="stroke:#A80036;stroke-width:1.0;" x1="127.5" x2="127.5" y1="311.5938" y2="324.5938"/><line style="stroke:#A80036;stroke-width:1.0;" x1="86.5" x2="127.5" y1="324.5938" y2="324.5938"/><polygon fill="#A80036" points="96.5,320.5938,86.5,324.5938,96.5,328.5938,92.5,324.5938" style="stroke:#A80036;stroke-width:1.0;"/><text fill="#000000" font-family="sans-serif" font-size="13" lengthAdjust="spacing" textLength="190" x="92.5" y="306.8516">map instructions to messages</text><line style="stroke:#A80036;stroke-width:1.0;" x1="85.5" x2="127.5" y1="353.9043" y2="353.9043"/><line style="stroke:#A80036;stroke-width:1.0;" x1="127.5" x2="127.5" y1="353.9043" y2="366.9043"/><line style="stroke:#A80036;stroke-width:1.0;" x1="86.5" x2="127.5" y1="366.9043" y2="366.9043"/><polygon fill="#A80036" points="96.5,362.9043,86.5,366.9043,96.5,370.9043,92.5,366.9043" style="stroke:#A80036;stroke-width:1.0;"/><text fill="#000000" font-family="sans-serif" font-size="13" lengthAdjust="spacing" textLength="261" x="92.5" y="349.1621">shouldUpdateStatus = if last tick in a day</text><polygon fill="#A80036" points="725,481.4229,735,485.4229,725,489.4229,729,485.4229" style="stroke:#A80036;stroke-width:1.0;"/><line style="stroke:#A80036;stroke-width:1.0;" x1="85.5" x2="731" y1="485.4229" y2="485.4229"/><text fill="#000000" font-family="sans-serif" font-size="13" lengthAdjust="spacing" textLength="218" x="92.5" y="480.6807">bulk publish instruction messages</text><path d="M752,379.9043 L752,572.9043 L1185,572.9043 L1185,389.9043 L1175,379.9043 L752,379.9043 " fill="#FBFB77" filter="url(#ff53z878fmo21)" style="stroke:#A80036;stroke-width:1.0;"/><path d="M1175,379.9043 L1175,389.9043 L1185,389.9043 L1175,379.9043 " fill="#FBFB77" style="stroke:#A80036;stroke-width:1.0;"/><text fill="#000000" font-family="sans-serif" font-size="13" lengthAdjust="spacing" textLength="4" x="758" y="397.4727">{</text><text fill="#000000" font-family="sans-serif" font-size="13" lengthAdjust="spacing" textLength="61" x="774" y="412.7832">cif: String</text><text fill="#000000" font-family="sans-serif" font-size="13" lengthAdjust="spacing" textLength="114" x="774" y="428.0938">recurringId: String</text><text fill="#000000" font-family="sans-serif" font-size="13" lengthAdjust="spacing" textLength="242" x="774" y="443.4043">processingCode: MUTUAL_FUNDS_SUB</text><text fill="#000000" font-family="sans-serif" font-size="13" lengthAdjust="spacing" textLength="396" x="774" y="458.7148">frequency: ONCE/DAILY/DAILY_WEEKDAYS/WEEKLY/MONTHLY</text><text fill="#000000" font-family="sans-serif" font-size="13" lengthAdjust="spacing" textLength="256" x="774" y="474.0254">endCondition: DATE/OCCURENCE/NONE</text><text fill="#000000" font-family="sans-serif" font-size="13" lengthAdjust="spacing" textLength="95" x="774" y="489.3359">startDate: Date</text><text fill="#000000" font-family="sans-serif" font-size="13" lengthAdjust="spacing" textLength="94" x="774" y="504.6465">endDate?: Date</text><text fill="#000000" font-family="sans-serif" font-size="13" lengthAdjust="spacing" textLength="171" x="774" y="519.957">targetOccurrence?: Number</text><text fill="#000000" font-family="sans-serif" font-size="13" lengthAdjust="spacing" textLength="127" x="774" y="535.2676">occurrence: Number</text><text fill="#000000" font-family="sans-serif" font-size="13" lengthAdjust="spacing" textLength="183" x="774" y="550.5781">shouldUpdateStatus: Boolean</text><text fill="#000000" font-family="sans-serif" font-size="13" lengthAdjust="spacing" textLength="4" x="758" y="565.8887">}</text><path d="M10,589.6309 L77,589.6309 L77,596.6309 L67,606.6309 L10,606.6309 L10,589.6309 " fill="#EEEEEE" style="stroke:#000000;stroke-width:1.0;"/><rect fill="none" height="59.6211" style="stroke:#000000;stroke-width:2.0;" width="279.5" x="10" y="589.6309"/><text fill="#000000" font-family="sans-serif" font-size="13" font-weight="bold" lengthAdjust="spacing" textLength="22" x="25" y="603.1992">opt</text><text fill="#000000" font-family="sans-serif" font-size="11" font-weight="bold" lengthAdjust="spacing" textLength="107" x="92" y="602.2656">[if publish FAILED]</text><line style="stroke:#A80036;stroke-width:1.0;" x1="85.5" x2="127.5" y1="628.252" y2="628.252"/><line style="stroke:#A80036;stroke-width:1.0;" x1="127.5" x2="127.5" y1="628.252" y2="641.252"/><line style="stroke:#A80036;stroke-width:1.0;" x1="86.5" x2="127.5" y1="641.252" y2="641.252"/><polygon fill="#A80036" points="96.5,637.252,86.5,641.252,96.5,645.252,92.5,641.252" style="stroke:#A80036;stroke-width:1.0;"/><text fill="#000000" font-family="sans-serif" font-size="13" lengthAdjust="spacing" textLength="185" x="92.5" y="623.5098">delay for 5s and retry 3 times</text><path d="M10,663.252 L77,663.252 L77,670.252 L67,680.252 L10,680.252 L10,663.252 " fill="#EEEEEE" style="stroke:#000000;stroke-width:1.0;"/><rect fill="none" height="59.6211" style="stroke:#000000;stroke-width:2.0;" width="334" x="10" y="663.252"/><text fill="#000000" font-family="sans-serif" font-size="13" font-weight="bold" lengthAdjust="spacing" textLength="22" x="25" y="676.8203">opt</text><text fill="#000000" font-family="sans-serif" font-size="11" font-weight="bold" lengthAdjust="spacing" textLength="247" x="92" y="675.8867">[if still failed and shouldUpdateStatus=true]</text><line style="stroke:#A80036;stroke-width:1.0;" x1="85.5" x2="127.5" y1="701.873" y2="701.873"/><line style="stroke:#A80036;stroke-width:1.0;" x1="127.5" x2="127.5" y1="701.873" y2="714.873"/><line style="stroke:#A80036;stroke-width:1.0;" x1="86.5" x2="127.5" y1="714.873" y2="714.873"/><polygon fill="#A80036" points="96.5,710.873,86.5,714.873,96.5,718.873,92.5,714.873" style="stroke:#A80036;stroke-width:1.0;"/><text fill="#000000" font-family="sans-serif" font-size="13" lengthAdjust="spacing" textLength="55" x="92.5" y="697.1309">alert JPS?</text><polygon fill="#A80036" points="997,747.1836,1007,751.1836,997,755.1836,1001,751.1836" style="stroke:#A80036;stroke-width:1.0;"/><line style="stroke:#A80036;stroke-width:1.0;" x1="742" x2="1003" y1="751.1836" y2="751.1836"/><text fill="#000000" font-family="sans-serif" font-size="13" lengthAdjust="spacing" textLength="157" x="749" y="746.4414">consume MF sub request</text><polygon fill="#A80036" points="498.5,776.4941,488.5,780.4941,498.5,784.4941,494.5,780.4941" style="stroke:#A80036;stroke-width:1.0;"/><line style="stroke:#A80036;stroke-width:1.0;" x1="492.5" x2="1008" y1="780.4941" y2="780.4941"/><text fill="#000000" font-family="sans-serif" font-size="13" lengthAdjust="spacing" textLength="161" x="504.5" y="775.752">update isProcessing=true</text><polygon fill="#A80036" points="1263,826.1152,1273,830.1152,1263,834.1152,1267,830.1152" style="stroke:#A80036;stroke-width:1.0;"/><line style="stroke:#A80036;stroke-width:1.0;" x1="1019" x2="1269" y1="830.1152" y2="830.1152"/><text fill="#000000" font-family="sans-serif" font-size="13" lengthAdjust="spacing" textLength="232" x="1026" y="825.373">query config to map processingCode</text><path d="M1280,793.4941 L1280,848.4941 L1543,848.4941 L1543,803.4941 L1533,793.4941 L1280,793.4941 " fill="#FBFB77" filter="url(#ff53z878fmo21)" style="stroke:#A80036;stroke-width:1.0;"/><path d="M1533,793.4941 L1533,803.4941 L1543,803.4941 L1533,793.4941 " fill="#FBFB77" style="stroke:#A80036;stroke-width:1.0;"/><text fill="#000000" font-family="sans-serif" font-size="13" lengthAdjust="spacing" textLength="242" x="1286" y="811.0625">processingCode: MUTUAL_FUNDS_SUB</text><text fill="#000000" font-family="sans-serif" font-size="13" lengthAdjust="spacing" textLength="232" x="1286" y="826.373">path: /admin/recurring-transactions</text><text fill="#000000" font-family="sans-serif" font-size="13" lengthAdjust="spacing" textLength="88" x="1286" y="841.6836">method: POST</text><polygon fill="#A80036" points="1470.5,875.7363,1480.5,879.7363,1470.5,883.7363,1474.5,879.7363" style="stroke:#A80036;stroke-width:1.0;"/><line style="stroke:#A80036;stroke-width:1.0;" x1="1019" x2="1476.5" y1="879.7363" y2="879.7363"/><text fill="#000000" font-family="sans-serif" font-size="13" lengthAdjust="spacing" textLength="232" x="1026" y="874.9941">POST /admin/recurring-transactions</text><path d="M935,894.7363 L1002,894.7363 L1002,901.7363 L992,911.7363 L935,911.7363 L935,894.7363 " fill="#EEEEEE" style="stroke:#000000;stroke-width:1.0;"/><rect fill="none" height="59.6211" style="stroke:#000000;stroke-width:2.0;" width="288" x="935" y="894.7363"/><text fill="#000000" font-family="sans-serif" font-size="13" font-weight="bold" lengthAdjust="spacing" textLength="22" x="950" y="908.3047">opt</text><text fill="#000000" font-family="sans-serif" font-size="11" font-weight="bold" lengthAdjust="spacing" textLength="135" x="1017" y="907.3711">[if failed but retry-able]</text><line style="stroke:#A80036;stroke-width:1.0;" x1="1019" x2="1061" y1="933.3574" y2="933.3574"/><line style="stroke:#A80036;stroke-width:1.0;" x1="1061" x2="1061" y1="933.3574" y2="946.3574"/><line style="stroke:#A80036;stroke-width:1.0;" x1="1020" x2="1061" y1="946.3574" y2="946.3574"/><polygon fill="#A80036" points="1030,942.3574,1020,946.3574,1030,950.3574,1026,946.3574" style="stroke:#A80036;stroke-width:1.0;"/><text fill="#000000" font-family="sans-serif" font-size="13" lengthAdjust="spacing" textLength="185" x="1026" y="928.6152">delay for 5s and retry 3 times</text><path d="M416,968.3574 L483,968.3574 L483,975.3574 L473,985.3574 L416,985.3574 L416,968.3574 " fill="#EEEEEE" style="stroke:#000000;stroke-width:1.0;"/><rect fill="none" height="107.2422" style="stroke:#000000;stroke-width:2.0;" width="687" x="416" y="968.3574"/><text fill="#000000" font-family="sans-serif" font-size="13" font-weight="bold" lengthAdjust="spacing" textLength="22" x="431" y="981.9258">opt</text><text fill="#000000" font-family="sans-serif" font-size="11" font-weight="bold" lengthAdjust="spacing" textLength="79" x="498" y="980.9922">[if still failed]</text><polygon fill="#A80036" points="498.5,1002.9785,488.5,1006.9785,498.5,1010.9785,494.5,1006.9785" style="stroke:#A80036;stroke-width:1.0;"/><line style="stroke:#A80036;stroke-width:1.0;" x1="492.5" x2="1008" y1="1006.9785" y2="1006.9785"/><text fill="#000000" font-family="sans-serif" font-size="13" lengthAdjust="spacing" textLength="166" x="504.5" y="1002.2363">update isProcessing=false</text><path d="M426,1021.9785 L493,1021.9785 L493,1028.9785 L483,1038.9785 L426,1038.9785 L426,1021.9785 " fill="#EEEEEE" style="stroke:#000000;stroke-width:1.0;"/><rect fill="none" height="46.6211" style="stroke:#000000;stroke-width:2.0;" width="667" x="426" y="1021.9785"/><text fill="#000000" font-family="sans-serif" font-size="13" font-weight="bold" lengthAdjust="spacing" textLength="22" x="441" y="1035.5469">opt</text><text fill="#000000" font-family="sans-serif" font-size="11" font-weight="bold" lengthAdjust="spacing" textLength="161" x="508" y="1034.6133">[if shouldUpdateStatus=true]</text><polygon fill="#A80036" points="498.5,1056.5996,488.5,1060.5996,498.5,1064.5996,494.5,1060.5996" style="stroke:#A80036;stroke-width:1.0;"/><line style="stroke:#A80036;stroke-width:1.0;" x1="492.5" x2="1008" y1="1060.5996" y2="1060.5996"/><text fill="#000000" font-family="sans-serif" font-size="13" lengthAdjust="spacing" textLength="292" x="504.5" y="1055.8574">update status to PAUSED and append histories</text><polygon fill="#A80036" points="1667,1099.9102,1677,1103.9102,1667,1107.9102,1671,1103.9102" style="stroke:#A80036;stroke-width:1.0;"/><line style="stroke:#A80036;stroke-width:1.0;" x1="1492.5" x2="1673" y1="1103.9102" y2="1103.9102"/><text fill="#000000" font-family="sans-serif" font-size="13" lengthAdjust="spacing" textLength="127" x="1499.5" y="1099.168">query by recurringId</text><polygon fill="#A80036" points="1835,1310.292,1845,1314.292,1835,1318.292,1839,1314.292" style="stroke:#A80036;stroke-width:1.0;"/><line style="stroke:#A80036;stroke-width:1.0;" x1="1492.5" x2="1841" y1="1314.292" y2="1314.292"/><text fill="#000000" font-family="sans-serif" font-size="13" lengthAdjust="spacing" textLength="175" x="1499.5" y="1309.5498">map data and insert inflight</text><path d="M1852,1116.9102 L1852,1493.9102 L2301,1493.9102 L2301,1126.9102 L2291,1116.9102 L1852,1116.9102 " fill="#FBFB77" filter="url(#ff53z878fmo21)" style="stroke:#A80036;stroke-width:1.0;"/><path d="M2291,1116.9102 L2291,1126.9102 L2301,1126.9102 L2291,1116.9102 " fill="#FBFB77" style="stroke:#A80036;stroke-width:1.0;"/><text fill="#000000" font-family="sans-serif" font-size="13" lengthAdjust="spacing" textLength="4" x="1858" y="1134.4785">{</text><text fill="#000000" font-family="sans-serif" font-size="13" lengthAdjust="spacing" textLength="87" x="1874" y="1149.7891">source: String</text><text fill="#000000" font-family="sans-serif" font-size="13" lengthAdjust="spacing" textLength="61" x="1874" y="1165.0996">cif: String</text><text fill="#000000" font-family="sans-serif" font-size="13" lengthAdjust="spacing" textLength="126" x="1874" y="1180.4102">productCode: String</text><text fill="#000000" font-family="sans-serif" font-size="13" lengthAdjust="spacing" textLength="130" x="1874" y="1195.7207">productName: String</text><text fill="#000000" font-family="sans-serif" font-size="13" lengthAdjust="spacing" textLength="162" x="1874" y="1211.0313">productGLAccount: String</text><text fill="#000000" font-family="sans-serif" font-size="13" lengthAdjust="spacing" textLength="104" x="1874" y="1226.3418">goalCode: String</text><text fill="#000000" font-family="sans-serif" font-size="13" lengthAdjust="spacing" textLength="99" x="1874" y="1241.6523">currency: String</text><text fill="#000000" font-family="sans-serif" font-size="13" lengthAdjust="spacing" textLength="106" x="1874" y="1256.9629">amount: Number</text><text fill="#000000" font-family="sans-serif" font-size="13" lengthAdjust="spacing" textLength="77" x="1874" y="1272.2734">fee: Number</text><text fill="#000000" font-family="sans-serif" font-size="13" lengthAdjust="spacing" textLength="78" x="1874" y="1287.584">tax: Number</text><text fill="#000000" font-family="sans-serif" font-size="13" lengthAdjust="spacing" textLength="81" x="1874" y="1302.8945">instruction: {</text><text fill="#000000" font-family="sans-serif" font-size="13" lengthAdjust="spacing" textLength="114" x="1890" y="1318.2051">recurringId: String</text><text fill="#000000" font-family="sans-serif" font-size="13" lengthAdjust="spacing" textLength="396" x="1890" y="1333.5156">frequency: ONCE/DAILY/DAILY_WEEKDAYS/WEEKLY/MONTHLY</text><text fill="#000000" font-family="sans-serif" font-size="13" lengthAdjust="spacing" textLength="256" x="1890" y="1348.8262">endCondition: DATE/OCCURENCE/NONE</text><text fill="#000000" font-family="sans-serif" font-size="13" lengthAdjust="spacing" textLength="95" x="1890" y="1364.1367">startDate: Date</text><text fill="#000000" font-family="sans-serif" font-size="13" lengthAdjust="spacing" textLength="94" x="1890" y="1379.4473">endDate?: Date</text><text fill="#000000" font-family="sans-serif" font-size="13" lengthAdjust="spacing" textLength="171" x="1890" y="1394.7578">targetOccurrence?: Number</text><text fill="#000000" font-family="sans-serif" font-size="13" lengthAdjust="spacing" textLength="122" x="1890" y="1410.0684">occurence: Number</text><text fill="#000000" font-family="sans-serif" font-size="13" lengthAdjust="spacing" textLength="183" x="1890" y="1425.3789">shouldUpdateStatus: Boolean</text><text fill="#000000" font-family="sans-serif" font-size="13" lengthAdjust="spacing" textLength="4" x="1874" y="1440.6895">}</text><text fill="#000000" font-family="sans-serif" font-size="13" lengthAdjust="spacing" textLength="97" x="1874" y="1456">createdAt: Date</text><text fill="#000000" font-family="sans-serif" font-size="13" lengthAdjust="spacing" textLength="107" x="1874" y="1471.3105">modifiedAt: Date</text><text fill="#000000" font-family="sans-serif" font-size="13" lengthAdjust="spacing" textLength="4" x="1858" y="1486.6211">}</text><polygon fill="#A80036" points="2077,1520.6738,2087,1524.6738,2077,1528.6738,2081,1524.6738" style="stroke:#A80036;stroke-width:1.0;"/><line style="stroke:#A80036;stroke-width:1.0;" x1="1487.5" x2="2083" y1="1524.6738" y2="1524.6738"/><text fill="#000000" font-family="sans-serif" font-size="13" lengthAdjust="spacing" textLength="242" x="1494.5" y="1519.9316">proceed transaction to journal posting</text><polygon fill="#A80036" points="2659.5,1549.9844,2669.5,1553.9844,2659.5,1557.9844,2663.5,1553.9844" style="stroke:#A80036;stroke-width:1.0;"/><line style="stroke:#A80036;stroke-width:1.0;" x1="2407.5" x2="2665.5" y1="1553.9844" y2="1553.9844"/><text fill="#000000" font-family="sans-serif" font-size="13" lengthAdjust="spacing" textLength="168" x="2414.5" y="1549.2422">Consume journal response</text><polygon fill="#A80036" points="2949.5,1579.2949,2959.5,1583.2949,2949.5,1587.2949,2953.5,1583.2949" style="stroke:#A80036;stroke-width:1.0;"/><line style="stroke:#A80036;stroke-width:1.0;" x1="2681.5" x2="2955.5" y1="1583.2949" y2="1583.2949"/><text fill="#000000" font-family="sans-serif" font-size="13" lengthAdjust="spacing" textLength="171" x="2688.5" y="1578.5527">Publish transaction to WMS</text><line style="stroke:#A80036;stroke-width:1.0;" x1="2681.5" x2="2723.5" y1="1612.6055" y2="1612.6055"/><line style="stroke:#A80036;stroke-width:1.0;" x1="2723.5" x2="2723.5" y1="1612.6055" y2="1625.6055"/><line style="stroke:#A80036;stroke-width:1.0;" x1="2682.5" x2="2723.5" y1="1625.6055" y2="1625.6055"/><polygon fill="#A80036" points="2692.5,1621.6055,2682.5,1625.6055,2692.5,1629.6055,2688.5,1625.6055" style="stroke:#A80036;stroke-width:1.0;"/><text fill="#000000" font-family="sans-serif" font-size="13" lengthAdjust="spacing" textLength="170" x="2688.5" y="1607.8633">calculate next executeDate</text><path d="M1590.5,1640.6055 L1652.5,1640.6055 L1652.5,1647.6055 L1642.5,1657.6055 L1590.5,1657.6055 L1590.5,1640.6055 " fill="#EEEEEE" style="stroke:#000000;stroke-width:1.0;"/><rect fill="none" height="46.6211" style="stroke:#000000;stroke-width:2.0;" width="1199" x="1590.5" y="1640.6055"/><text fill="#000000" font-family="sans-serif" font-size="13" font-weight="bold" lengthAdjust="spacing" textLength="17" x="1605.5" y="1654.1738">alt</text><text fill="#000000" font-family="sans-serif" font-size="11" font-weight="bold" lengthAdjust="spacing" textLength="292" x="1667.5" y="1653.2402">[if nextStatus=COMPLETED (instruction completed)]</text><polygon fill="#A80036" points="1690,1675.2266,1680,1679.2266,1690,1683.2266,1686,1679.2266" style="stroke:#A80036;stroke-width:1.0;"/><line style="stroke:#A80036;stroke-width:1.0;" x1="1684" x2="2670.5" y1="1679.2266" y2="1679.2266"/><text fill="#000000" font-family="sans-serif" font-size="13" lengthAdjust="spacing" textLength="155" x="1696" y="1674.4844">update status, expiredAt</text><polygon fill="#A80036" points="3303.5,1770.124,3313.5,1774.124,3303.5,1778.124,3307.5,1774.124" style="stroke:#A80036;stroke-width:1.0;"/><line style="stroke:#A80036;stroke-width:1.0;" x1="2676.5" x2="3309.5" y1="1774.124" y2="1774.124"/><text fill="#000000" font-family="sans-serif" font-size="13" lengthAdjust="spacing" textLength="168" x="2683.5" y="1769.3818">Publish recurring response</text><path d="M3330,1699.2266 L3330,1831.2266 L3678,1831.2266 L3678,1709.2266 L3668,1699.2266 L3330,1699.2266 " fill="#FBFB77" filter="url(#ff53z878fmo21)" style="stroke:#A80036;stroke-width:1.0;"/><path d="M3668,1699.2266 L3668,1709.2266 L3678,1709.2266 L3668,1699.2266 " fill="#FBFB77" style="stroke:#A80036;stroke-width:1.0;"/><text fill="#000000" font-family="sans-serif" font-size="13" lengthAdjust="spacing" textLength="4" x="3336" y="1716.7949">{</text><text fill="#000000" font-family="sans-serif" font-size="13" lengthAdjust="spacing" textLength="61" x="3352" y="1732.1055">cif: String</text><text fill="#000000" font-family="sans-serif" font-size="13" lengthAdjust="spacing" textLength="114" x="3352" y="1747.416">recurringId: String</text><text fill="#000000" font-family="sans-serif" font-size="13" lengthAdjust="spacing" textLength="108" x="3352" y="1762.7266">executedAt: Date</text><text fill="#000000" font-family="sans-serif" font-size="13" lengthAdjust="spacing" textLength="311" x="3352" y="1778.0371">status: SUCCESS/FAILED/INSUFFICIENT_BALANCE</text><text fill="#000000" font-family="sans-serif" font-size="13" lengthAdjust="spacing" textLength="143" x="3352" y="1793.3477">nextExecuteDate: Date</text><text fill="#000000" font-family="sans-serif" font-size="13" lengthAdjust="spacing" textLength="259" x="3352" y="1808.6582">nextStatus: ACTIVE/PAUSED/COMPLETED</text><text fill="#000000" font-family="sans-serif" font-size="13" lengthAdjust="spacing" textLength="4" x="3336" y="1823.9688">}</text><polygon fill="#A80036" points="3595,1858.0215,3605,1862.0215,3595,1866.0215,3599,1862.0215" style="stroke:#A80036;stroke-width:1.0;"/><line style="stroke:#A80036;stroke-width:1.0;" x1="3320.5" x2="3601" y1="1862.0215" y2="1862.0215"/><text fill="#000000" font-family="sans-serif" font-size="13" lengthAdjust="spacing" textLength="181" x="3327.5" y="1857.2793">Consume recurring response</text><path d="M426,1877.0215 L488,1877.0215 L488,1884.0215 L478,1894.0215 L426,1894.0215 L426,1877.0215 " fill="#EEEEEE" style="stroke:#000000;stroke-width:1.0;"/><rect fill="none" height="93.2422" style="stroke:#000000;stroke-width:2.0;" width="3300.5" x="426" y="1877.0215"/><text fill="#000000" font-family="sans-serif" font-size="13" font-weight="bold" lengthAdjust="spacing" textLength="17" x="441" y="1890.5898">alt</text><text fill="#000000" font-family="sans-serif" font-size="11" font-weight="bold" lengthAdjust="spacing" textLength="253" x="503" y="1889.6563">[if executeDate=null (instruction completed)]</text><polygon fill="#A80036" points="498.5,1911.6426,488.5,1915.6426,498.5,1919.6426,494.5,1915.6426" style="stroke:#A80036;stroke-width:1.0;"/><line style="stroke:#A80036;stroke-width:1.0;" x1="492.5" x2="3606" y1="1915.6426" y2="1915.6426"/><text fill="#000000" font-family="sans-serif" font-size="13" lengthAdjust="spacing" textLength="186" x="504.5" y="1910.9004">Delete data/update expiredAt</text><line style="stroke:#000000;stroke-width:1.0;stroke-dasharray:2.0,2.0;" x1="426" x2="3726.5" y1="1924.6426" y2="1924.6426"/><polygon fill="#A80036" points="498.5,1958.2637,488.5,1962.2637,498.5,1966.2637,494.5,1962.2637" style="stroke:#A80036;stroke-width:1.0;"/><line style="stroke:#A80036;stroke-width:1.0;" x1="492.5" x2="3606" y1="1962.2637" y2="1962.2637"/><text fill="#000000" font-family="sans-serif" font-size="13" lengthAdjust="spacing" textLength="372" x="504.5" y="1942.2109">Update status, executeDate, occurence, isProcessing=false</text><text fill="#000000" font-family="sans-serif" font-size="13" lengthAdjust="spacing" textLength="247" x="504.5" y="1957.5215">append histories: [{executedAt, status}]</text><!--MD5=[9c84c68a3b13c5b6d338131f98d43ae9]
@startuml mutual funds cron recurring

participant "cron-recurring" as cron
participant "ms-eod-status" as eod
collections "instructions" as instr
queue "ID.JENIUS.RECURRING.INSTRUCTIONS.MUTUAL_FUNDS" as kafkaRec
participant "worker-recurring" as wri
collections "instructionConfigurations" as configs
participant "ms-investment-transaction" as mit
collections "productInstructions" as prodIns
collections "inflightTransactions" as inflights
queue "ID.JENIUS.INVESTMENT.JOURNAL.REQUEST" as kafkaJournal
queue "ID.JENIUS.INVESTMENT.JOURNAL.RESPONSE" as kafkaJournalRes
participant "worker-investment-journal" as wij
queue "ID.JENIUS.INVESTMENT.TRANSACTION.REQUEST" as kafkaWms
queue "ID.JENIUS.RECURRING.RESPONSE.MUTUAL_FUNDS" as kafkaRecRes
participant "worker-recurring-response" as wrr

activate cron
cron -> cron: run every day\n at 6am, 9am, and 12pm
cron -> eod: GET /eq/eod-status
alt isNightMode=true
cron -> cron: end process
end
cron -> instr: query executeDate=today\nstatus=ACTIVE\nisProcessing=false\nprocessingCode=MUTUAL_FUNDS_SUB
cron -> cron: map instructions to messages
cron -> cron: shouldUpdateStatus = if last tick in a day
cron -> kafkaRec: bulk publish instruction messages
note right
{ 
    cif: String
    recurringId: String
    processingCode: MUTUAL_FUNDS_SUB
    frequency: ONCE/DAILY/DAILY_WEEKDAYS/WEEKLY/MONTHLY
    endCondition: DATE/OCCURENCE/NONE
    startDate: Date
    endDate?: Date
    targetOccurrence?: Number
    occurrence: Number
    shouldUpdateStatus: Boolean
}
end note
activate kafkaRec
opt if publish FAILED
cron -> cron: delay for 5s and retry 3 times
end
opt if still failed and shouldUpdateStatus=true
cron -> cron: alert JPS?
end
deactivate cron
kafkaRec -> wri: consume MF sub request
deactivate kafkaRec
activate wri
wri -> instr: update isProcessing=true
wri -> configs: query config to map processingCode
note right
processingCode: MUTUAL_FUNDS_SUB
path: /admin/recurring-transactions
method: POST
end note
wri -> mit: POST /admin/recurring-transactions
activate mit
opt if failed but retry-able
wri -> wri: delay for 5s and retry 3 times
end
opt if still failed
wri -> instr: update isProcessing=false
opt if shouldUpdateStatus=true
wri -> instr: update status to PAUSED and append histories
end
end
deactivate wri 
mit -> prodIns: query by recurringId
mit -> inflights: map data and insert inflight
note right
{ 
    source: String
    cif: String
    productCode: String
    productName: String
    productGLAccount: String
    goalCode: String
    currency: String
    amount: Number
    fee: Number
    tax: Number
    instruction: {
        recurringId: String
        frequency: ONCE/DAILY/DAILY_WEEKDAYS/WEEKLY/MONTHLY
        endCondition: DATE/OCCURENCE/NONE
        startDate: Date
        endDate?: Date
        targetOccurrence?: Number
        occurence: Number
        shouldUpdateStatus: Boolean
    }
    createdAt: Date
    modifiedAt: Date
}
end note
mit -> kafkaJournal: proceed transaction to journal posting
deactivate mit
kafkaJournalRes -> wij: Consume journal response
activate wij
wij -> kafkaWms: Publish transaction to WMS
wij -> wij: calculate next executeDate
alt if nextStatus=COMPLETED (instruction completed)
wij -> prodIns: update status, expiredAt
end
wij -> kafkaRecRes: Publish recurring response
note right 
{
    cif: String
    recurringId: String
    executedAt: Date
    status: SUCCESS/FAILED/INSUFFICIENT_BALANCE
    nextExecuteDate: Date
    nextStatus: ACTIVE/PAUSED/COMPLETED
}
end note
deactivate wij
activate kafkaRecRes
kafkaRecRes -> wrr: Consume recurring response
deactivate kafkaRecRes
activate wrr
alt if executeDate=null (instruction completed)
wrr -> instr: Delete data/update expiredAt
else
wrr -> instr: Update status, executeDate, occurence, isProcessing=false\nappend histories: [{executedAt, status}]
end
deactivate wrr

@enduml

PlantUML version 1.2021.7(Sun May 23 19:40:07 WIB 2021)
(GPL source distribution)
Java Runtime: Java(TM) SE Runtime Environment
JVM: Java HotSpot(TM) 64-Bit Server VM
Default Encoding: UTF-8
Language: en
Country: US
--></g></svg>