<?xml version="1.0" encoding="UTF-8" standalone="no"?><svg xmlns="http://www.w3.org/2000/svg" xmlns:xlink="http://www.w3.org/1999/xlink" contentScriptType="application/ecmascript" contentStyleType="text/css" height="1931px" preserveAspectRatio="none" style="width:3711px;height:1931px;background:#FFFFFF;" version="1.1" viewBox="0 0 3711 1931" width="3711px" zoomAndPan="magnify"><defs><filter height="300%" id="f1s5k9d9ajpzf8" width="300%" x="-1" y="-1"><feGaussianBlur result="blurOut" stdDeviation="2.0"/><feColorMatrix in="blurOut" result="blurOut2" type="matrix" values="0 0 0 0 0 0 0 0 0 0 0 0 0 0 0 0 0 0 .4 0"/><feOffset dx="4.0" dy="4.0" in="blurOut2" result="blurOut3"/><feBlend in="SourceGraphic" in2="blurOut3" mode="normal"/></filter></defs><g><rect fill="#FFFFFF" filter="url(#f1s5k9d9ajpzf8)" height="633.0742" style="stroke:#A80036;stroke-width:1.0;" width="10" x="75.5" y="54.4883"/><rect fill="#FFFFFF" filter="url(#f1s5k9d9ajpzf8)" height="265.7607" style="stroke:#A80036;stroke-width:1.0;" width="10" x="666" y="443.1123"/><rect fill="#FFFFFF" filter="url(#f1s5k9d9ajpzf8)" height="270.7949" style="stroke:#A80036;stroke-width:1.0;" width="10" x="979.5" y="708.873"/><rect fill="#FFFFFF" filter="url(#f1s5k9d9ajpzf8)" height="1367.2539" style="stroke:#A80036;stroke-width:1.0;" width="10" x="1453" y="54.4883"/><rect fill="#FFFFFF" filter="url(#f1s5k9d9ajpzf8)" height="220.1396" style="stroke:#A80036;stroke-width:1.0;" width="10" x="2642" y="1451.0527"/><rect fill="#FFFFFF" filter="url(#f1s5k9d9ajpzf8)" height="87.8975" style="stroke:#A80036;stroke-width:1.0;" width="10" x="3286" y="1671.1924"/><rect fill="#FFFFFF" filter="url(#f1s5k9d9ajpzf8)" height="115.2422" style="stroke:#A80036;stroke-width:1.0;" width="10" x="3577.5" y="1759.0898"/><rect fill="#FFFFFF" filter="url(#f1s5k9d9ajpzf8)" height="59.6211" style="stroke:#000000;stroke-width:2.0;" width="191" x="10" y="148.4199"/><rect fill="#FFFFFF" filter="url(#f1s5k9d9ajpzf8)" height="59.6211" style="stroke:#000000;stroke-width:2.0;" width="279.5" x="10" y="547.3203"/><rect fill="#FFFFFF" filter="url(#f1s5k9d9ajpzf8)" height="59.6211" style="stroke:#000000;stroke-width:2.0;" width="184" x="10" y="620.9414"/><rect fill="#FFFFFF" filter="url(#f1s5k9d9ajpzf8)" height="59.6211" style="stroke:#000000;stroke-width:2.0;" width="329.5" x="864" y="852.4258"/><rect fill="#FFFFFF" filter="url(#f1s5k9d9ajpzf8)" height="46.6211" style="stroke:#000000;stroke-width:2.0;" width="2614" x="864" y="926.0469"/><rect fill="#FFFFFF" filter="url(#f1s5k9d9ajpzf8)" height="46.6211" style="stroke:#000000;stroke-width:2.0;" width="1199" x="1561" y="1537.6738"/><rect fill="#FFFFFF" filter="url(#f1s5k9d9ajpzf8)" height="93.2422" style="stroke:#000000;stroke-width:2.0;" width="3342" x="355" y="1774.0898"/><rect fill="#FFFFFF" height="46.6211" style="stroke:none;stroke-width:1.0;" width="3342" x="355" y="1820.7109"/><line style="stroke:#A80036;stroke-width:1.0;stroke-dasharray:5.0,5.0;" x1="80" x2="80" y1="44.4883" y2="1884.332"/><line style="stroke:#A80036;stroke-width:1.0;stroke-dasharray:5.0,5.0;" x1="294" x2="294" y1="44.4883" y2="1884.332"/><line style="stroke:#A80036;stroke-width:1.0;stroke-dasharray:5.0,5.0;" x1="416" x2="416" y1="44.4883" y2="1884.332"/><line style="stroke:#A80036;stroke-width:1.0;stroke-dasharray:5.0,5.0;" x1="671" x2="671" y1="44.4883" y2="1884.332"/><line style="stroke:#A80036;stroke-width:1.0;stroke-dasharray:5.0,5.0;" x1="984" x2="984" y1="44.4883" y2="1884.332"/><line style="stroke:#A80036;stroke-width:1.0;stroke-dasharray:5.0,5.0;" x1="1245" x2="1245" y1="44.4883" y2="1884.332"/><line style="stroke:#A80036;stroke-width:1.0;stroke-dasharray:5.0,5.0;" x1="1458" x2="1458" y1="44.4883" y2="1884.332"/><line style="stroke:#A80036;stroke-width:1.0;stroke-dasharray:5.0,5.0;" x1="1649" x2="1649" y1="44.4883" y2="1884.332"/><line style="stroke:#A80036;stroke-width:1.0;stroke-dasharray:5.0,5.0;" x1="1817" x2="1817" y1="44.4883" y2="1884.332"/><line style="stroke:#A80036;stroke-width:1.0;stroke-dasharray:5.0,5.0;" x1="2059" x2="2059" y1="44.4883" y2="1884.332"/><line style="stroke:#A80036;stroke-width:1.0;stroke-dasharray:5.0,5.0;" x1="2378" x2="2378" y1="44.4883" y2="1884.332"/><line style="stroke:#A80036;stroke-width:1.0;stroke-dasharray:5.0,5.0;" x1="2647" x2="2647" y1="44.4883" y2="1884.332"/><line style="stroke:#A80036;stroke-width:1.0;stroke-dasharray:5.0,5.0;" x1="2932" x2="2932" y1="44.4883" y2="1884.332"/><line style="stroke:#A80036;stroke-width:1.0;stroke-dasharray:5.0,5.0;" x1="3291" x2="3291" y1="44.4883" y2="1884.332"/><line style="stroke:#A80036;stroke-width:1.0;stroke-dasharray:5.0,5.0;" x1="3582" x2="3582" y1="44.4883" y2="1884.332"/><rect fill="#FEFECE" filter="url(#f1s5k9d9ajpzf8)" height="30.4883" style="stroke:#A80036;stroke-width:1.5;" width="117" x="20" y="9"/><text fill="#000000" font-family="sans-serif" font-size="14" lengthAdjust="spacing" textLength="103" x="27" y="29.5352">cron-recurring</text><rect fill="#FEFECE" filter="url(#f1s5k9d9ajpzf8)" height="30.4883" style="stroke:#A80036;stroke-width:1.5;" width="117" x="20" y="1883.332"/><text fill="#000000" font-family="sans-serif" font-size="14" lengthAdjust="spacing" textLength="103" x="27" y="1903.8672">cron-recurring</text><rect fill="#FEFECE" filter="url(#f1s5k9d9ajpzf8)" height="30.4883" style="stroke:#A80036;stroke-width:1.5;" width="117" x="234" y="9"/><text fill="#000000" font-family="sans-serif" font-size="14" lengthAdjust="spacing" textLength="103" x="241" y="29.5352">ms-eod-status</text><rect fill="#FEFECE" filter="url(#f1s5k9d9ajpzf8)" height="30.4883" style="stroke:#A80036;stroke-width:1.5;" width="117" x="234" y="1883.332"/><text fill="#000000" font-family="sans-serif" font-size="14" lengthAdjust="spacing" textLength="103" x="241" y="1903.8672">ms-eod-status</text><rect fill="#FEFECE" filter="url(#f1s5k9d9ajpzf8)" height="30.4883" style="stroke:#A80036;stroke-width:1.5;" width="95" x="369" y="5"/><rect fill="#FEFECE" filter="url(#f1s5k9d9ajpzf8)" height="30.4883" style="stroke:#A80036;stroke-width:1.5;" width="95" x="365" y="9"/><text fill="#000000" font-family="sans-serif" font-size="14" lengthAdjust="spacing" textLength="81" x="372" y="29.5352">instructions</text><rect fill="#FEFECE" filter="url(#f1s5k9d9ajpzf8)" height="30.4883" style="stroke:#A80036;stroke-width:1.5;" width="95" x="369" y="1883.332"/><rect fill="#FEFECE" filter="url(#f1s5k9d9ajpzf8)" height="30.4883" style="stroke:#A80036;stroke-width:1.5;" width="95" x="365" y="1887.332"/><text fill="#000000" font-family="sans-serif" font-size="14" lengthAdjust="spacing" textLength="81" x="372" y="1907.8672">instructions</text><path d="M483,18 L859,18 C864,18 864,31.2441 864,31.2441 C864,31.2441 864,44.4883 859,44.4883 L483,44.4883 C478,44.4883 478,31.2441 478,31.2441 C478,31.2441 478,18 483,18 " fill="#FEFECE" filter="url(#f1s5k9d9ajpzf8)" style="stroke:#A80036;stroke-width:2.0;"/><path d="M859,18 C854,18 854,31.2441 854,31.2441 C854,44.4883 859,44.4883 859,44.4883 " fill="none" style="stroke:#A80036;stroke-width:2.0;"/><text fill="#000000" font-family="sans-serif" font-size="14" lengthAdjust="spacing" textLength="366" x="483" y="36.5352">ID.JENIUS.RECURRING.INSTRUCTIONS.MUTUAL_FUNDS</text><path d="M483,1883.332 L859,1883.332 C864,1883.332 864,1896.5762 864,1896.5762 C864,1896.5762 864,1909.8203 859,1909.8203 L483,1909.8203 C478,1909.8203 478,1896.5762 478,1896.5762 C478,1896.5762 478,1883.332 483,1883.332 " fill="#FEFECE" filter="url(#f1s5k9d9ajpzf8)" style="stroke:#A80036;stroke-width:2.0;"/><path d="M859,1883.332 C854,1883.332 854,1896.5762 854,1896.5762 C854,1909.8203 859,1909.8203 859,1909.8203 " fill="none" style="stroke:#A80036;stroke-width:2.0;"/><text fill="#000000" font-family="sans-serif" font-size="14" lengthAdjust="spacing" textLength="366" x="483" y="1901.8672">ID.JENIUS.RECURRING.INSTRUCTIONS.MUTUAL_FUNDS</text><rect fill="#FEFECE" filter="url(#f1s5k9d9ajpzf8)" height="30.4883" style="stroke:#A80036;stroke-width:1.5;" width="217" x="874" y="9"/><text fill="#000000" font-family="sans-serif" font-size="14" lengthAdjust="spacing" textLength="203" x="881" y="29.5352">worker-recurring-investment</text><rect fill="#FEFECE" filter="url(#f1s5k9d9ajpzf8)" height="30.4883" style="stroke:#A80036;stroke-width:1.5;" width="217" x="874" y="1883.332"/><text fill="#000000" font-family="sans-serif" font-size="14" lengthAdjust="spacing" textLength="203" x="881" y="1903.8672">worker-recurring-investment</text><rect fill="#FEFECE" filter="url(#f1s5k9d9ajpzf8)" height="30.4883" style="stroke:#A80036;stroke-width:1.5;" width="191" x="1150" y="5"/><rect fill="#FEFECE" filter="url(#f1s5k9d9ajpzf8)" height="30.4883" style="stroke:#A80036;stroke-width:1.5;" width="191" x="1146" y="9"/><text fill="#000000" font-family="sans-serif" font-size="14" lengthAdjust="spacing" textLength="177" x="1153" y="29.5352">instructionConfigurations</text><rect fill="#FEFECE" filter="url(#f1s5k9d9ajpzf8)" height="30.4883" style="stroke:#A80036;stroke-width:1.5;" width="191" x="1150" y="1883.332"/><rect fill="#FEFECE" filter="url(#f1s5k9d9ajpzf8)" height="30.4883" style="stroke:#A80036;stroke-width:1.5;" width="191" x="1146" y="1887.332"/><text fill="#000000" font-family="sans-serif" font-size="14" lengthAdjust="spacing" textLength="177" x="1153" y="1907.8672">instructionConfigurations</text><rect fill="#FEFECE" filter="url(#f1s5k9d9ajpzf8)" height="30.4883" style="stroke:#A80036;stroke-width:1.5;" width="202" x="1355" y="9"/><text fill="#000000" font-family="sans-serif" font-size="14" lengthAdjust="spacing" textLength="188" x="1362" y="29.5352">ms-investment-transaction</text><rect fill="#FEFECE" filter="url(#f1s5k9d9ajpzf8)" height="30.4883" style="stroke:#A80036;stroke-width:1.5;" width="202" x="1355" y="1883.332"/><text fill="#000000" font-family="sans-serif" font-size="14" lengthAdjust="spacing" textLength="188" x="1362" y="1903.8672">ms-investment-transaction</text><rect fill="#FEFECE" filter="url(#f1s5k9d9ajpzf8)" height="30.4883" style="stroke:#A80036;stroke-width:1.5;" width="149" x="1575" y="5"/><rect fill="#FEFECE" filter="url(#f1s5k9d9ajpzf8)" height="30.4883" style="stroke:#A80036;stroke-width:1.5;" width="149" x="1571" y="9"/><text fill="#000000" font-family="sans-serif" font-size="14" lengthAdjust="spacing" textLength="135" x="1578" y="29.5352">productInstructions</text><rect fill="#FEFECE" filter="url(#f1s5k9d9ajpzf8)" height="30.4883" style="stroke:#A80036;stroke-width:1.5;" width="149" x="1575" y="1883.332"/><rect fill="#FEFECE" filter="url(#f1s5k9d9ajpzf8)" height="30.4883" style="stroke:#A80036;stroke-width:1.5;" width="149" x="1571" y="1887.332"/><text fill="#000000" font-family="sans-serif" font-size="14" lengthAdjust="spacing" textLength="135" x="1578" y="1907.8672">productInstructions</text><rect fill="#FEFECE" filter="url(#f1s5k9d9ajpzf8)" height="30.4883" style="stroke:#A80036;stroke-width:1.5;" width="151" x="1742" y="5"/><rect fill="#FEFECE" filter="url(#f1s5k9d9ajpzf8)" height="30.4883" style="stroke:#A80036;stroke-width:1.5;" width="151" x="1738" y="9"/><text fill="#000000" font-family="sans-serif" font-size="14" lengthAdjust="spacing" textLength="137" x="1745" y="29.5352">inflightTransactions</text><rect fill="#FEFECE" filter="url(#f1s5k9d9ajpzf8)" height="30.4883" style="stroke:#A80036;stroke-width:1.5;" width="151" x="1742" y="1883.332"/><rect fill="#FEFECE" filter="url(#f1s5k9d9ajpzf8)" height="30.4883" style="stroke:#A80036;stroke-width:1.5;" width="151" x="1738" y="1887.332"/><text fill="#000000" font-family="sans-serif" font-size="14" lengthAdjust="spacing" textLength="137" x="1745" y="1907.8672">inflightTransactions</text><path d="M1912,18 L2207,18 C2212,18 2212,31.2441 2212,31.2441 C2212,31.2441 2212,44.4883 2207,44.4883 L1912,44.4883 C1907,44.4883 1907,31.2441 1907,31.2441 C1907,31.2441 1907,18 1912,18 " fill="#FEFECE" filter="url(#f1s5k9d9ajpzf8)" style="stroke:#A80036;stroke-width:2.0;"/><path d="M2207,18 C2202,18 2202,31.2441 2202,31.2441 C2202,44.4883 2207,44.4883 2207,44.4883 " fill="none" style="stroke:#A80036;stroke-width:2.0;"/><text fill="#000000" font-family="sans-serif" font-size="14" lengthAdjust="spacing" textLength="285" x="1912" y="36.5352">ID.JENIUS.INVESTMENT.JOURNAL.REQUEST</text><path d="M1912,1883.332 L2207,1883.332 C2212,1883.332 2212,1896.5762 2212,1896.5762 C2212,1896.5762 2212,1909.8203 2207,1909.8203 L1912,1909.8203 C1907,1909.8203 1907,1896.5762 1907,1896.5762 C1907,1896.5762 1907,1883.332 1912,1883.332 " fill="#FEFECE" filter="url(#f1s5k9d9ajpzf8)" style="stroke:#A80036;stroke-width:2.0;"/><path d="M2207,1883.332 C2202,1883.332 2202,1896.5762 2202,1896.5762 C2202,1909.8203 2207,1909.8203 2207,1909.8203 " fill="none" style="stroke:#A80036;stroke-width:2.0;"/><text fill="#000000" font-family="sans-serif" font-size="14" lengthAdjust="spacing" textLength="285" x="1912" y="1901.8672">ID.JENIUS.INVESTMENT.JOURNAL.REQUEST</text><path d="M2227,18 L2529,18 C2534,18 2534,31.2441 2534,31.2441 C2534,31.2441 2534,44.4883 2529,44.4883 L2227,44.4883 C2222,44.4883 2222,31.2441 2222,31.2441 C2222,31.2441 2222,18 2227,18 " fill="#FEFECE" filter="url(#f1s5k9d9ajpzf8)" style="stroke:#A80036;stroke-width:2.0;"/><path d="M2529,18 C2524,18 2524,31.2441 2524,31.2441 C2524,44.4883 2529,44.4883 2529,44.4883 " fill="none" style="stroke:#A80036;stroke-width:2.0;"/><text fill="#000000" font-family="sans-serif" font-size="14" lengthAdjust="spacing" textLength="292" x="2227" y="36.5352">ID.JENIUS.INVESTMENT.JOURNAL.RESPONSE</text><path d="M2227,1883.332 L2529,1883.332 C2534,1883.332 2534,1896.5762 2534,1896.5762 C2534,1896.5762 2534,1909.8203 2529,1909.8203 L2227,1909.8203 C2222,1909.8203 2222,1896.5762 2222,1896.5762 C2222,1896.5762 2222,1883.332 2227,1883.332 " fill="#FEFECE" filter="url(#f1s5k9d9ajpzf8)" style="stroke:#A80036;stroke-width:2.0;"/><path d="M2529,1883.332 C2524,1883.332 2524,1896.5762 2524,1896.5762 C2524,1909.8203 2529,1909.8203 2529,1909.8203 " fill="none" style="stroke:#A80036;stroke-width:2.0;"/><text fill="#000000" font-family="sans-serif" font-size="14" lengthAdjust="spacing" textLength="292" x="2227" y="1901.8672">ID.JENIUS.INVESTMENT.JOURNAL.RESPONSE</text><rect fill="#FEFECE" filter="url(#f1s5k9d9ajpzf8)" height="30.4883" style="stroke:#A80036;stroke-width:1.5;" width="202" x="2544" y="9"/><text fill="#000000" font-family="sans-serif" font-size="14" lengthAdjust="spacing" textLength="188" x="2551" y="29.5352">worker-investment-journal</text><rect fill="#FEFECE" filter="url(#f1s5k9d9ajpzf8)" height="30.4883" style="stroke:#A80036;stroke-width:1.5;" width="202" x="2544" y="1883.332"/><text fill="#000000" font-family="sans-serif" font-size="14" lengthAdjust="spacing" textLength="188" x="2551" y="1903.8672">worker-investment-journal</text><path d="M2765,18 L3099,18 C3104,18 3104,31.2441 3104,31.2441 C3104,31.2441 3104,44.4883 3099,44.4883 L2765,44.4883 C2760,44.4883 2760,31.2441 2760,31.2441 C2760,31.2441 2760,18 2765,18 " fill="#FEFECE" filter="url(#f1s5k9d9ajpzf8)" style="stroke:#A80036;stroke-width:2.0;"/><path d="M3099,18 C3094,18 3094,31.2441 3094,31.2441 C3094,44.4883 3099,44.4883 3099,44.4883 " fill="none" style="stroke:#A80036;stroke-width:2.0;"/><text fill="#000000" font-family="sans-serif" font-size="14" lengthAdjust="spacing" textLength="324" x="2765" y="36.5352">ID.JENIUS.INVESTMENT.TRANSACTION.REQUEST</text><path d="M2765,1883.332 L3099,1883.332 C3104,1883.332 3104,1896.5762 3104,1896.5762 C3104,1896.5762 3104,1909.8203 3099,1909.8203 L2765,1909.8203 C2760,1909.8203 2760,1896.5762 2760,1896.5762 C2760,1896.5762 2760,1883.332 2765,1883.332 " fill="#FEFECE" filter="url(#f1s5k9d9ajpzf8)" style="stroke:#A80036;stroke-width:2.0;"/><path d="M3099,1883.332 C3094,1883.332 3094,1896.5762 3094,1896.5762 C3094,1909.8203 3099,1909.8203 3099,1909.8203 " fill="none" style="stroke:#A80036;stroke-width:2.0;"/><text fill="#000000" font-family="sans-serif" font-size="14" lengthAdjust="spacing" textLength="324" x="2765" y="1901.8672">ID.JENIUS.INVESTMENT.TRANSACTION.REQUEST</text><path d="M3119,18 L3463,18 C3468,18 3468,31.2441 3468,31.2441 C3468,31.2441 3468,44.4883 3463,44.4883 L3119,44.4883 C3114,44.4883 3114,31.2441 3114,31.2441 C3114,31.2441 3114,18 3119,18 " fill="#FEFECE" filter="url(#f1s5k9d9ajpzf8)" style="stroke:#A80036;stroke-width:2.0;"/><path d="M3463,18 C3458,18 3458,31.2441 3458,31.2441 C3458,44.4883 3463,44.4883 3463,44.4883 " fill="none" style="stroke:#A80036;stroke-width:2.0;"/><text fill="#000000" font-family="sans-serif" font-size="14" lengthAdjust="spacing" textLength="334" x="3119" y="36.5352">ID.JENIUS.RECURRING.RESPONSE.MUTUAL_FUNDS</text><path d="M3119,1883.332 L3463,1883.332 C3468,1883.332 3468,1896.5762 3468,1896.5762 C3468,1896.5762 3468,1909.8203 3463,1909.8203 L3119,1909.8203 C3114,1909.8203 3114,1896.5762 3114,1896.5762 C3114,1896.5762 3114,1883.332 3119,1883.332 " fill="#FEFECE" filter="url(#f1s5k9d9ajpzf8)" style="stroke:#A80036;stroke-width:2.0;"/><path d="M3463,1883.332 C3458,1883.332 3458,1896.5762 3458,1896.5762 C3458,1909.8203 3463,1909.8203 3463,1909.8203 " fill="none" style="stroke:#A80036;stroke-width:2.0;"/><text fill="#000000" font-family="sans-serif" font-size="14" lengthAdjust="spacing" textLength="334" x="3119" y="1901.8672">ID.JENIUS.RECURRING.RESPONSE.MUTUAL_FUNDS</text><rect fill="#FEFECE" filter="url(#f1s5k9d9ajpzf8)" height="30.4883" style="stroke:#A80036;stroke-width:1.5;" width="205" x="3478" y="9"/><text fill="#000000" font-family="sans-serif" font-size="14" lengthAdjust="spacing" textLength="191" x="3485" y="29.5352">worker-recurring-response</text><rect fill="#FEFECE" filter="url(#f1s5k9d9ajpzf8)" height="30.4883" style="stroke:#A80036;stroke-width:1.5;" width="205" x="3478" y="1883.332"/><text fill="#000000" font-family="sans-serif" font-size="14" lengthAdjust="spacing" textLength="191" x="3485" y="1903.8672">worker-recurring-response</text><rect fill="#FFFFFF" filter="url(#f1s5k9d9ajpzf8)" height="633.0742" style="stroke:#A80036;stroke-width:1.0;" width="10" x="75.5" y="54.4883"/><rect fill="#FFFFFF" filter="url(#f1s5k9d9ajpzf8)" height="265.7607" style="stroke:#A80036;stroke-width:1.0;" width="10" x="666" y="443.1123"/><rect fill="#FFFFFF" filter="url(#f1s5k9d9ajpzf8)" height="270.7949" style="stroke:#A80036;stroke-width:1.0;" width="10" x="979.5" y="708.873"/><rect fill="#FFFFFF" filter="url(#f1s5k9d9ajpzf8)" height="1367.2539" style="stroke:#A80036;stroke-width:1.0;" width="10" x="1453" y="54.4883"/><rect fill="#FFFFFF" filter="url(#f1s5k9d9ajpzf8)" height="220.1396" style="stroke:#A80036;stroke-width:1.0;" width="10" x="2642" y="1451.0527"/><rect fill="#FFFFFF" filter="url(#f1s5k9d9ajpzf8)" height="87.8975" style="stroke:#A80036;stroke-width:1.0;" width="10" x="3286" y="1671.1924"/><rect fill="#FFFFFF" filter="url(#f1s5k9d9ajpzf8)" height="115.2422" style="stroke:#A80036;stroke-width:1.0;" width="10" x="3577.5" y="1759.0898"/><line style="stroke:#A80036;stroke-width:1.0;" x1="85.5" x2="127.5" y1="91.1094" y2="91.1094"/><line style="stroke:#A80036;stroke-width:1.0;" x1="127.5" x2="127.5" y1="91.1094" y2="104.1094"/><line style="stroke:#A80036;stroke-width:1.0;" x1="86.5" x2="127.5" y1="104.1094" y2="104.1094"/><polygon fill="#A80036" points="96.5,100.1094,86.5,104.1094,96.5,108.1094,92.5,104.1094" style="stroke:#A80036;stroke-width:1.0;"/><text fill="#000000" font-family="sans-serif" font-size="13" lengthAdjust="spacing" textLength="84" x="92.5" y="71.0566">run every day</text><text fill="#000000" font-family="sans-serif" font-size="13" lengthAdjust="spacing" textLength="149" x="96.5" y="86.3672">at 6am, 9am, and 12pm</text><polygon fill="#A80036" points="282.5,129.4199,292.5,133.4199,282.5,137.4199,286.5,133.4199" style="stroke:#A80036;stroke-width:1.0;"/><line style="stroke:#A80036;stroke-width:1.0;" x1="85.5" x2="288.5" y1="133.4199" y2="133.4199"/><text fill="#000000" font-family="sans-serif" font-size="13" lengthAdjust="spacing" textLength="127" x="92.5" y="128.6777">GET /eq/eod-status</text><path d="M10,148.4199 L72,148.4199 L72,155.4199 L62,165.4199 L10,165.4199 L10,148.4199 " fill="#EEEEEE" style="stroke:#000000;stroke-width:1.0;"/><rect fill="none" height="59.6211" style="stroke:#000000;stroke-width:2.0;" width="191" x="10" y="148.4199"/><text fill="#000000" font-family="sans-serif" font-size="13" font-weight="bold" lengthAdjust="spacing" textLength="17" x="25" y="161.9883">alt</text><text fill="#000000" font-family="sans-serif" font-size="11" font-weight="bold" lengthAdjust="spacing" textLength="109" x="87" y="161.0547">[isNightMode=true]</text><line style="stroke:#A80036;stroke-width:1.0;" x1="85.5" x2="127.5" y1="187.041" y2="187.041"/><line style="stroke:#A80036;stroke-width:1.0;" x1="127.5" x2="127.5" y1="187.041" y2="200.041"/><line style="stroke:#A80036;stroke-width:1.0;" x1="86.5" x2="127.5" y1="200.041" y2="200.041"/><polygon fill="#A80036" points="96.5,196.041,86.5,200.041,96.5,204.041,92.5,200.041" style="stroke:#A80036;stroke-width:1.0;"/><text fill="#000000" font-family="sans-serif" font-size="13" lengthAdjust="spacing" textLength="76" x="92.5" y="182.2988">end process</text><polygon fill="#A80036" points="404.5,278.2832,414.5,282.2832,404.5,286.2832,408.5,282.2832" style="stroke:#A80036;stroke-width:1.0;"/><line style="stroke:#A80036;stroke-width:1.0;" x1="85.5" x2="410.5" y1="282.2832" y2="282.2832"/><text fill="#000000" font-family="sans-serif" font-size="13" lengthAdjust="spacing" textLength="162" x="92.5" y="231.6094">query executeDate=today</text><text fill="#000000" font-family="sans-serif" font-size="13" lengthAdjust="spacing" textLength="94" x="92.5" y="246.9199">status=ACTIVE</text><text fill="#000000" font-family="sans-serif" font-size="13" lengthAdjust="spacing" textLength="119" x="92.5" y="262.2305">isProcessing=false</text><text fill="#000000" font-family="sans-serif" font-size="13" lengthAdjust="spacing" textLength="244" x="92.5" y="277.541">processingCode=MUTUAL_FUNDS_SUB</text><line style="stroke:#A80036;stroke-width:1.0;" x1="85.5" x2="127.5" y1="311.5938" y2="311.5938"/><line style="stroke:#A80036;stroke-width:1.0;" x1="127.5" x2="127.5" y1="311.5938" y2="324.5938"/><line style="stroke:#A80036;stroke-width:1.0;" x1="86.5" x2="127.5" y1="324.5938" y2="324.5938"/><polygon fill="#A80036" points="96.5,320.5938,86.5,324.5938,96.5,328.5938,92.5,324.5938" style="stroke:#A80036;stroke-width:1.0;"/><text fill="#000000" font-family="sans-serif" font-size="13" lengthAdjust="spacing" textLength="190" x="92.5" y="306.8516">map instructions to messages</text><polygon fill="#A80036" points="654,439.1123,664,443.1123,654,447.1123,658,443.1123" style="stroke:#A80036;stroke-width:1.0;"/><line style="stroke:#A80036;stroke-width:1.0;" x1="85.5" x2="660" y1="443.1123" y2="443.1123"/><text fill="#000000" font-family="sans-serif" font-size="13" lengthAdjust="spacing" textLength="218" x="92.5" y="438.3701">bulk publish instruction messages</text><path d="M681,337.5938 L681,530.5938 L1114,530.5938 L1114,347.5938 L1104,337.5938 L681,337.5938 " fill="#FBFB77" filter="url(#f1s5k9d9ajpzf8)" style="stroke:#A80036;stroke-width:1.0;"/><path d="M1104,337.5938 L1104,347.5938 L1114,347.5938 L1104,337.5938 " fill="#FBFB77" style="stroke:#A80036;stroke-width:1.0;"/><text fill="#000000" font-family="sans-serif" font-size="13" lengthAdjust="spacing" textLength="4" x="687" y="355.1621">{</text><text fill="#000000" font-family="sans-serif" font-size="13" lengthAdjust="spacing" textLength="61" x="703" y="370.4727">cif: String</text><text fill="#000000" font-family="sans-serif" font-size="13" lengthAdjust="spacing" textLength="114" x="703" y="385.7832">recurringId: String</text><text fill="#000000" font-family="sans-serif" font-size="13" lengthAdjust="spacing" textLength="242" x="703" y="401.0938">processingCode: MUTUAL_FUNDS_SUB</text><text fill="#000000" font-family="sans-serif" font-size="13" lengthAdjust="spacing" textLength="396" x="703" y="416.4043">frequency: ONCE/DAILY/DAILY_WEEKDAYS/WEEKLY/MONTHLY</text><text fill="#000000" font-family="sans-serif" font-size="13" lengthAdjust="spacing" textLength="256" x="703" y="431.7148">endCondition: DATE/OCCURENCE/NONE</text><text fill="#000000" font-family="sans-serif" font-size="13" lengthAdjust="spacing" textLength="95" x="703" y="447.0254">startDate: Date</text><text fill="#000000" font-family="sans-serif" font-size="13" lengthAdjust="spacing" textLength="94" x="703" y="462.3359">endDate?: Date</text><text fill="#000000" font-family="sans-serif" font-size="13" lengthAdjust="spacing" textLength="171" x="703" y="477.6465">targetOccurrence?: Number</text><text fill="#000000" font-family="sans-serif" font-size="13" lengthAdjust="spacing" textLength="127" x="703" y="492.957">occurrence: Number</text><text fill="#000000" font-family="sans-serif" font-size="13" lengthAdjust="spacing" textLength="183" x="703" y="508.2676">shouldUpdateStatus: Boolean</text><text fill="#000000" font-family="sans-serif" font-size="13" lengthAdjust="spacing" textLength="4" x="687" y="523.5781">}</text><path d="M10,547.3203 L72,547.3203 L72,554.3203 L62,564.3203 L10,564.3203 L10,547.3203 " fill="#EEEEEE" style="stroke:#000000;stroke-width:1.0;"/><rect fill="none" height="59.6211" style="stroke:#000000;stroke-width:2.0;" width="279.5" x="10" y="547.3203"/><text fill="#000000" font-family="sans-serif" font-size="13" font-weight="bold" lengthAdjust="spacing" textLength="17" x="25" y="560.8887">alt</text><text fill="#000000" font-family="sans-serif" font-size="11" font-weight="bold" lengthAdjust="spacing" textLength="107" x="87" y="559.9551">[if publish FAILED]</text><line style="stroke:#A80036;stroke-width:1.0;" x1="85.5" x2="127.5" y1="585.9414" y2="585.9414"/><line style="stroke:#A80036;stroke-width:1.0;" x1="127.5" x2="127.5" y1="585.9414" y2="598.9414"/><line style="stroke:#A80036;stroke-width:1.0;" x1="86.5" x2="127.5" y1="598.9414" y2="598.9414"/><polygon fill="#A80036" points="96.5,594.9414,86.5,598.9414,96.5,602.9414,92.5,598.9414" style="stroke:#A80036;stroke-width:1.0;"/><text fill="#000000" font-family="sans-serif" font-size="13" lengthAdjust="spacing" textLength="185" x="92.5" y="581.1992">delay for 5s and retry 3 times</text><path d="M10,620.9414 L72,620.9414 L72,627.9414 L62,637.9414 L10,637.9414 L10,620.9414 " fill="#EEEEEE" style="stroke:#000000;stroke-width:1.0;"/><rect fill="none" height="59.6211" style="stroke:#000000;stroke-width:2.0;" width="184" x="10" y="620.9414"/><text fill="#000000" font-family="sans-serif" font-size="13" font-weight="bold" lengthAdjust="spacing" textLength="17" x="25" y="634.5098">alt</text><text fill="#000000" font-family="sans-serif" font-size="11" font-weight="bold" lengthAdjust="spacing" textLength="102" x="87" y="633.5762">[if always FAILED]</text><line style="stroke:#A80036;stroke-width:1.0;" x1="85.5" x2="127.5" y1="659.5625" y2="659.5625"/><line style="stroke:#A80036;stroke-width:1.0;" x1="127.5" x2="127.5" y1="659.5625" y2="672.5625"/><line style="stroke:#A80036;stroke-width:1.0;" x1="86.5" x2="127.5" y1="672.5625" y2="672.5625"/><polygon fill="#A80036" points="96.5,668.5625,86.5,672.5625,96.5,676.5625,92.5,672.5625" style="stroke:#A80036;stroke-width:1.0;"/><text fill="#000000" font-family="sans-serif" font-size="13" lengthAdjust="spacing" textLength="50" x="92.5" y="654.8203">alert JPS</text><polygon fill="#A80036" points="967.5,704.873,977.5,708.873,967.5,712.873,971.5,708.873" style="stroke:#A80036;stroke-width:1.0;"/><line style="stroke:#A80036;stroke-width:1.0;" x1="671" x2="973.5" y1="708.873" y2="708.873"/><text fill="#000000" font-family="sans-serif" font-size="13" lengthAdjust="spacing" textLength="157" x="678" y="704.1309">consume MF sub request</text><polygon fill="#A80036" points="427.5,734.1836,417.5,738.1836,427.5,742.1836,423.5,738.1836" style="stroke:#A80036;stroke-width:1.0;"/><line style="stroke:#A80036;stroke-width:1.0;" x1="421.5" x2="978.5" y1="738.1836" y2="738.1836"/><text fill="#000000" font-family="sans-serif" font-size="13" lengthAdjust="spacing" textLength="161" x="433.5" y="733.4414">update isProcessing=true</text><polygon fill="#A80036" points="1233.5,783.8047,1243.5,787.8047,1233.5,791.8047,1237.5,787.8047" style="stroke:#A80036;stroke-width:1.0;"/><line style="stroke:#A80036;stroke-width:1.0;" x1="989.5" x2="1239.5" y1="787.8047" y2="787.8047"/><text fill="#000000" font-family="sans-serif" font-size="13" lengthAdjust="spacing" textLength="232" x="996.5" y="783.0625">query config to map processingCode</text><path d="M1250,751.1836 L1250,806.1836 L1513,806.1836 L1513,761.1836 L1503,751.1836 L1250,751.1836 " fill="#FBFB77" filter="url(#f1s5k9d9ajpzf8)" style="stroke:#A80036;stroke-width:1.0;"/><path d="M1503,751.1836 L1503,761.1836 L1513,761.1836 L1503,751.1836 " fill="#FBFB77" style="stroke:#A80036;stroke-width:1.0;"/><text fill="#000000" font-family="sans-serif" font-size="13" lengthAdjust="spacing" textLength="242" x="1256" y="768.752">processingCode: MUTUAL_FUNDS_SUB</text><text fill="#000000" font-family="sans-serif" font-size="13" lengthAdjust="spacing" textLength="232" x="1256" y="784.0625">path: /admin/recurring-transactions</text><text fill="#000000" font-family="sans-serif" font-size="13" lengthAdjust="spacing" textLength="88" x="1256" y="799.373">method: POST</text><polygon fill="#A80036" points="1441,833.4258,1451,837.4258,1441,841.4258,1445,837.4258" style="stroke:#A80036;stroke-width:1.0;"/><line style="stroke:#A80036;stroke-width:1.0;" x1="989.5" x2="1447" y1="837.4258" y2="837.4258"/><text fill="#000000" font-family="sans-serif" font-size="13" lengthAdjust="spacing" textLength="232" x="996.5" y="832.6836">POST /admin/recurring-transactions</text><path d="M864,852.4258 L926,852.4258 L926,859.4258 L916,869.4258 L864,869.4258 L864,852.4258 " fill="#EEEEEE" style="stroke:#000000;stroke-width:1.0;"/><rect fill="none" height="59.6211" style="stroke:#000000;stroke-width:2.0;" width="329.5" x="864" y="852.4258"/><text fill="#000000" font-family="sans-serif" font-size="13" font-weight="bold" lengthAdjust="spacing" textLength="17" x="879" y="865.9941">alt</text><text fill="#000000" font-family="sans-serif" font-size="11" font-weight="bold" lengthAdjust="spacing" textLength="135" x="941" y="865.0605">[if failed but retry-able]</text><line style="stroke:#A80036;stroke-width:1.0;" x1="989.5" x2="1031.5" y1="891.0469" y2="891.0469"/><line style="stroke:#A80036;stroke-width:1.0;" x1="1031.5" x2="1031.5" y1="891.0469" y2="904.0469"/><line style="stroke:#A80036;stroke-width:1.0;" x1="990.5" x2="1031.5" y1="904.0469" y2="904.0469"/><polygon fill="#A80036" points="1000.5,900.0469,990.5,904.0469,1000.5,908.0469,996.5,904.0469" style="stroke:#A80036;stroke-width:1.0;"/><text fill="#000000" font-family="sans-serif" font-size="13" lengthAdjust="spacing" textLength="185" x="996.5" y="886.3047">delay for 5s and retry 3 times</text><path d="M864,926.0469 L926,926.0469 L926,933.0469 L916,943.0469 L864,943.0469 L864,926.0469 " fill="#EEEEEE" style="stroke:#000000;stroke-width:1.0;"/><rect fill="none" height="46.6211" style="stroke:#000000;stroke-width:2.0;" width="2614" x="864" y="926.0469"/><text fill="#000000" font-family="sans-serif" font-size="13" font-weight="bold" lengthAdjust="spacing" textLength="17" x="879" y="939.6152">alt</text><text fill="#000000" font-family="sans-serif" font-size="11" font-weight="bold" lengthAdjust="spacing" textLength="94" x="941" y="938.6816">[if always failed]</text><polygon fill="#A80036" points="3279,960.668,3289,964.668,3279,968.668,3283,964.668" style="stroke:#A80036;stroke-width:1.0;"/><line style="stroke:#A80036;stroke-width:1.0;" x1="989.5" x2="3285" y1="964.668" y2="964.668"/><text fill="#000000" font-family="sans-serif" font-size="13" lengthAdjust="spacing" textLength="215" x="996.5" y="959.9258">publish response to update status</text><polygon fill="#A80036" points="1637.5,996.9785,1647.5,1000.9785,1637.5,1004.9785,1641.5,1000.9785" style="stroke:#A80036;stroke-width:1.0;"/><line style="stroke:#A80036;stroke-width:1.0;" x1="1463" x2="1643.5" y1="1000.9785" y2="1000.9785"/><text fill="#000000" font-family="sans-serif" font-size="13" lengthAdjust="spacing" textLength="127" x="1470" y="996.2363">query by recurringId</text><polygon fill="#A80036" points="1805.5,1207.3604,1815.5,1211.3604,1805.5,1215.3604,1809.5,1211.3604" style="stroke:#A80036;stroke-width:1.0;"/><line style="stroke:#A80036;stroke-width:1.0;" x1="1463" x2="1811.5" y1="1211.3604" y2="1211.3604"/><text fill="#000000" font-family="sans-serif" font-size="13" lengthAdjust="spacing" textLength="175" x="1470" y="1206.6182">map data and insert inflight</text><path d="M1822,1013.9785 L1822,1390.9785 L2271,1390.9785 L2271,1023.9785 L2261,1013.9785 L1822,1013.9785 " fill="#FBFB77" filter="url(#f1s5k9d9ajpzf8)" style="stroke:#A80036;stroke-width:1.0;"/><path d="M2261,1013.9785 L2261,1023.9785 L2271,1023.9785 L2261,1013.9785 " fill="#FBFB77" style="stroke:#A80036;stroke-width:1.0;"/><text fill="#000000" font-family="sans-serif" font-size="13" lengthAdjust="spacing" textLength="4" x="1828" y="1031.5469">{</text><text fill="#000000" font-family="sans-serif" font-size="13" lengthAdjust="spacing" textLength="87" x="1844" y="1046.8574">source: String</text><text fill="#000000" font-family="sans-serif" font-size="13" lengthAdjust="spacing" textLength="61" x="1844" y="1062.168">cif: String</text><text fill="#000000" font-family="sans-serif" font-size="13" lengthAdjust="spacing" textLength="126" x="1844" y="1077.4785">productCode: String</text><text fill="#000000" font-family="sans-serif" font-size="13" lengthAdjust="spacing" textLength="130" x="1844" y="1092.7891">productName: String</text><text fill="#000000" font-family="sans-serif" font-size="13" lengthAdjust="spacing" textLength="162" x="1844" y="1108.0996">productGLAccount: String</text><text fill="#000000" font-family="sans-serif" font-size="13" lengthAdjust="spacing" textLength="104" x="1844" y="1123.4102">goalCode: String</text><text fill="#000000" font-family="sans-serif" font-size="13" lengthAdjust="spacing" textLength="99" x="1844" y="1138.7207">currency: String</text><text fill="#000000" font-family="sans-serif" font-size="13" lengthAdjust="spacing" textLength="106" x="1844" y="1154.0313">amount: Number</text><text fill="#000000" font-family="sans-serif" font-size="13" lengthAdjust="spacing" textLength="77" x="1844" y="1169.3418">fee: Number</text><text fill="#000000" font-family="sans-serif" font-size="13" lengthAdjust="spacing" textLength="78" x="1844" y="1184.6523">tax: Number</text><text fill="#000000" font-family="sans-serif" font-size="13" lengthAdjust="spacing" textLength="81" x="1844" y="1199.9629">instruction: {</text><text fill="#000000" font-family="sans-serif" font-size="13" lengthAdjust="spacing" textLength="114" x="1860" y="1215.2734">recurringId: String</text><text fill="#000000" font-family="sans-serif" font-size="13" lengthAdjust="spacing" textLength="396" x="1860" y="1230.584">frequency: ONCE/DAILY/DAILY_WEEKDAYS/WEEKLY/MONTHLY</text><text fill="#000000" font-family="sans-serif" font-size="13" lengthAdjust="spacing" textLength="256" x="1860" y="1245.8945">endCondition: DATE/OCCURENCE/NONE</text><text fill="#000000" font-family="sans-serif" font-size="13" lengthAdjust="spacing" textLength="95" x="1860" y="1261.2051">startDate: Date</text><text fill="#000000" font-family="sans-serif" font-size="13" lengthAdjust="spacing" textLength="94" x="1860" y="1276.5156">endDate?: Date</text><text fill="#000000" font-family="sans-serif" font-size="13" lengthAdjust="spacing" textLength="171" x="1860" y="1291.8262">targetOccurrence?: Number</text><text fill="#000000" font-family="sans-serif" font-size="13" lengthAdjust="spacing" textLength="122" x="1860" y="1307.1367">occurence: Number</text><text fill="#000000" font-family="sans-serif" font-size="13" lengthAdjust="spacing" textLength="183" x="1860" y="1322.4473">shouldUpdateStatus: Boolean</text><text fill="#000000" font-family="sans-serif" font-size="13" lengthAdjust="spacing" textLength="4" x="1844" y="1337.7578">}</text><text fill="#000000" font-family="sans-serif" font-size="13" lengthAdjust="spacing" textLength="97" x="1844" y="1353.0684">createdAt: Date</text><text fill="#000000" font-family="sans-serif" font-size="13" lengthAdjust="spacing" textLength="107" x="1844" y="1368.3789">modifiedAt: Date</text><text fill="#000000" font-family="sans-serif" font-size="13" lengthAdjust="spacing" textLength="4" x="1828" y="1383.6895">}</text><polygon fill="#A80036" points="2047.5,1417.7422,2057.5,1421.7422,2047.5,1425.7422,2051.5,1421.7422" style="stroke:#A80036;stroke-width:1.0;"/><line style="stroke:#A80036;stroke-width:1.0;" x1="1458" x2="2053.5" y1="1421.7422" y2="1421.7422"/><text fill="#000000" font-family="sans-serif" font-size="13" lengthAdjust="spacing" textLength="242" x="1465" y="1417">proceed transaction to journal posting</text><polygon fill="#A80036" points="2630,1447.0527,2640,1451.0527,2630,1455.0527,2634,1451.0527" style="stroke:#A80036;stroke-width:1.0;"/><line style="stroke:#A80036;stroke-width:1.0;" x1="2378" x2="2636" y1="1451.0527" y2="1451.0527"/><text fill="#000000" font-family="sans-serif" font-size="13" lengthAdjust="spacing" textLength="168" x="2385" y="1446.3105">Consume journal response</text><polygon fill="#A80036" points="2920,1476.3633,2930,1480.3633,2920,1484.3633,2924,1480.3633" style="stroke:#A80036;stroke-width:1.0;"/><line style="stroke:#A80036;stroke-width:1.0;" x1="2652" x2="2926" y1="1480.3633" y2="1480.3633"/><text fill="#000000" font-family="sans-serif" font-size="13" lengthAdjust="spacing" textLength="171" x="2659" y="1475.6211">Publish transaction to WMS</text><line style="stroke:#A80036;stroke-width:1.0;" x1="2652" x2="2694" y1="1509.6738" y2="1509.6738"/><line style="stroke:#A80036;stroke-width:1.0;" x1="2694" x2="2694" y1="1509.6738" y2="1522.6738"/><line style="stroke:#A80036;stroke-width:1.0;" x1="2653" x2="2694" y1="1522.6738" y2="1522.6738"/><polygon fill="#A80036" points="2663,1518.6738,2653,1522.6738,2663,1526.6738,2659,1522.6738" style="stroke:#A80036;stroke-width:1.0;"/><text fill="#000000" font-family="sans-serif" font-size="13" lengthAdjust="spacing" textLength="170" x="2659" y="1504.9316">calculate next executeDate</text><path d="M1561,1537.6738 L1623,1537.6738 L1623,1544.6738 L1613,1554.6738 L1561,1554.6738 L1561,1537.6738 " fill="#EEEEEE" style="stroke:#000000;stroke-width:1.0;"/><rect fill="none" height="46.6211" style="stroke:#000000;stroke-width:2.0;" width="1199" x="1561" y="1537.6738"/><text fill="#000000" font-family="sans-serif" font-size="13" font-weight="bold" lengthAdjust="spacing" textLength="17" x="1576" y="1551.2422">alt</text><text fill="#000000" font-family="sans-serif" font-size="11" font-weight="bold" lengthAdjust="spacing" textLength="292" x="1638" y="1550.3086">[if nextStatus=COMPLETED (instruction completed)]</text><polygon fill="#A80036" points="1660.5,1572.2949,1650.5,1576.2949,1660.5,1580.2949,1656.5,1576.2949" style="stroke:#A80036;stroke-width:1.0;"/><line style="stroke:#A80036;stroke-width:1.0;" x1="1654.5" x2="2641" y1="1576.2949" y2="1576.2949"/><text fill="#000000" font-family="sans-serif" font-size="13" lengthAdjust="spacing" textLength="155" x="1666.5" y="1571.5527">update status, expiredAt</text><polygon fill="#A80036" points="3274,1667.1924,3284,1671.1924,3274,1675.1924,3278,1671.1924" style="stroke:#A80036;stroke-width:1.0;"/><line style="stroke:#A80036;stroke-width:1.0;" x1="2647" x2="3280" y1="1671.1924" y2="1671.1924"/><text fill="#000000" font-family="sans-serif" font-size="13" lengthAdjust="spacing" textLength="168" x="2654" y="1666.4502">Publish recurring response</text><path d="M3301,1596.2949 L3301,1728.2949 L3649,1728.2949 L3649,1606.2949 L3639,1596.2949 L3301,1596.2949 " fill="#FBFB77" filter="url(#f1s5k9d9ajpzf8)" style="stroke:#A80036;stroke-width:1.0;"/><path d="M3639,1596.2949 L3639,1606.2949 L3649,1606.2949 L3639,1596.2949 " fill="#FBFB77" style="stroke:#A80036;stroke-width:1.0;"/><text fill="#000000" font-family="sans-serif" font-size="13" lengthAdjust="spacing" textLength="4" x="3307" y="1613.8633">{</text><text fill="#000000" font-family="sans-serif" font-size="13" lengthAdjust="spacing" textLength="61" x="3323" y="1629.1738">cif: String</text><text fill="#000000" font-family="sans-serif" font-size="13" lengthAdjust="spacing" textLength="114" x="3323" y="1644.4844">recurringId: String</text><text fill="#000000" font-family="sans-serif" font-size="13" lengthAdjust="spacing" textLength="108" x="3323" y="1659.7949">executedAt: Date</text><text fill="#000000" font-family="sans-serif" font-size="13" lengthAdjust="spacing" textLength="311" x="3323" y="1675.1055">status: SUCCESS/FAILED/INSUFFICIENT_BALANCE</text><text fill="#000000" font-family="sans-serif" font-size="13" lengthAdjust="spacing" textLength="143" x="3323" y="1690.416">nextExecuteDate: Date</text><text fill="#000000" font-family="sans-serif" font-size="13" lengthAdjust="spacing" textLength="259" x="3323" y="1705.7266">nextStatus: ACTIVE/PAUSED/COMPLETED</text><text fill="#000000" font-family="sans-serif" font-size="13" lengthAdjust="spacing" textLength="4" x="3307" y="1721.0371">}</text><polygon fill="#A80036" points="3565.5,1755.0898,3575.5,1759.0898,3565.5,1763.0898,3569.5,1759.0898" style="stroke:#A80036;stroke-width:1.0;"/><line style="stroke:#A80036;stroke-width:1.0;" x1="3291" x2="3571.5" y1="1759.0898" y2="1759.0898"/><text fill="#000000" font-family="sans-serif" font-size="13" lengthAdjust="spacing" textLength="181" x="3298" y="1754.3477">Consume recurring response</text><path d="M355,1774.0898 L417,1774.0898 L417,1781.0898 L407,1791.0898 L355,1791.0898 L355,1774.0898 " fill="#EEEEEE" style="stroke:#000000;stroke-width:1.0;"/><rect fill="none" height="93.2422" style="stroke:#000000;stroke-width:2.0;" width="3342" x="355" y="1774.0898"/><text fill="#000000" font-family="sans-serif" font-size="13" font-weight="bold" lengthAdjust="spacing" textLength="17" x="370" y="1787.6582">alt</text><text fill="#000000" font-family="sans-serif" font-size="11" font-weight="bold" lengthAdjust="spacing" textLength="253" x="432" y="1786.7246">[if executeDate=null (instruction completed)]</text><polygon fill="#A80036" points="427.5,1808.7109,417.5,1812.7109,427.5,1816.7109,423.5,1812.7109" style="stroke:#A80036;stroke-width:1.0;"/><line style="stroke:#A80036;stroke-width:1.0;" x1="421.5" x2="3576.5" y1="1812.7109" y2="1812.7109"/><text fill="#000000" font-family="sans-serif" font-size="13" lengthAdjust="spacing" textLength="186" x="433.5" y="1807.9688">Delete data/update expiredAt</text><line style="stroke:#000000;stroke-width:1.0;stroke-dasharray:2.0,2.0;" x1="355" x2="3697" y1="1821.7109" y2="1821.7109"/><polygon fill="#A80036" points="427.5,1855.332,417.5,1859.332,427.5,1863.332,423.5,1859.332" style="stroke:#A80036;stroke-width:1.0;"/><line style="stroke:#A80036;stroke-width:1.0;" x1="421.5" x2="3576.5" y1="1859.332" y2="1859.332"/><text fill="#000000" font-family="sans-serif" font-size="13" lengthAdjust="spacing" textLength="372" x="433.5" y="1839.2793">Update status, executeDate, occurence, isProcessing=false</text><text fill="#000000" font-family="sans-serif" font-size="13" lengthAdjust="spacing" textLength="247" x="433.5" y="1854.5898">append histories: [{executedAt, status}]</text><!--MD5=[73d1b2d8ccba1f14820e60561a72ce52]
@startuml mutual funds cron recurring

participant "cron-recurring" as cron
participant "ms-eod-status" as eod
collections "instructions" as instr
queue "ID.JENIUS.RECURRING.INSTRUCTIONS.MUTUAL_FUNDS" as kafkaRec
participant "worker-recurring-investment" as wri
collections "instructionConfigurations" as configs
participant "ms-investment-transaction" as mit
collections "productInstructions" as prodIns
collections "inflightTransactions" as inflights
queue "ID.JENIUS.INVESTMENT.JOURNAL.REQUEST" as kafkaJournal
queue "ID.JENIUS.INVESTMENT.JOURNAL.RESPONSE" as kafkaJournalRes
participant "worker-investment-journal" as wij
queue "ID.JENIUS.INVESTMENT.TRANSACTION.REQUEST" as kafkaWms
queue "ID.JENIUS.RECURRING.RESPONSE.MUTUAL_FUNDS" as kafkaRecRes
participant "worker-recurring-response" as wrr

activate cron
cron -> cron: run every day\n at 6am, 9am, and 12pm
cron -> eod: GET /eq/eod-status
alt isNightMode=true
cron -> cron: end process
end
cron -> instr: query executeDate=today\nstatus=ACTIVE\nisProcessing=false\nprocessingCode=MUTUAL_FUNDS_SUB
cron -> cron: map instructions to messages
cron -> kafkaRec: bulk publish instruction messages
note right
{ 
    cif: String
    recurringId: String
    processingCode: MUTUAL_FUNDS_SUB
    frequency: ONCE/DAILY/DAILY_WEEKDAYS/WEEKLY/MONTHLY
    endCondition: DATE/OCCURENCE/NONE
    startDate: Date
    endDate?: Date
    targetOccurrence?: Number
    occurrence: Number
    shouldUpdateStatus: Boolean
}
end note
activate kafkaRec
alt if publish FAILED
cron -> cron: delay for 5s and retry 3 times
end
alt if always FAILED
cron -> cron: alert JPS
end
deactivate cron
kafkaRec -> wri: consume MF sub request
deactivate kafkaRec
activate wri
wri -> instr: update isProcessing=true
wri -> configs: query config to map processingCode
note right
processingCode: MUTUAL_FUNDS_SUB
path: /admin/recurring-transactions
method: POST
end note
wri -> mit: POST /admin/recurring-transactions
alt if failed but retry-able
wri -> wri: delay for 5s and retry 3 times
end
alt if always failed
wri -> kafkaRecRes: publish response to update status
end
deactivate wri
activate mit
mit -> prodIns: query by recurringId
mit -> inflights: map data and insert inflight
note right
{ 
    source: String
    cif: String
    productCode: String
    productName: String
    productGLAccount: String
    goalCode: String
    currency: String
    amount: Number
    fee: Number
    tax: Number
    instruction: {
        recurringId: String
        frequency: ONCE/DAILY/DAILY_WEEKDAYS/WEEKLY/MONTHLY
        endCondition: DATE/OCCURENCE/NONE
        startDate: Date
        endDate?: Date
        targetOccurrence?: Number
        occurence: Number
        shouldUpdateStatus: Boolean
    }
    createdAt: Date
    modifiedAt: Date
}
end note
mit -> kafkaJournal: proceed transaction to journal posting
deactivate mit
kafkaJournalRes -> wij: Consume journal response
activate wij
wij -> kafkaWms: Publish transaction to WMS
wij -> wij: calculate next executeDate
alt if nextStatus=COMPLETED (instruction completed)
wij -> prodIns: update status, expiredAt
end
wij -> kafkaRecRes: Publish recurring response
note right 
{
    cif: String
    recurringId: String
    executedAt: Date
    status: SUCCESS/FAILED/INSUFFICIENT_BALANCE
    nextExecuteDate: Date
    nextStatus: ACTIVE/PAUSED/COMPLETED
}
end note
deactivate wij
activate kafkaRecRes
kafkaRecRes -> wrr: Consume recurring response
deactivate kafkaRecRes
activate wrr
alt if executeDate=null (instruction completed)
wrr -> instr: Delete data/update expiredAt
else
wrr -> instr: Update status, executeDate, occurence, isProcessing=false\nappend histories: [{executedAt, status}]
end
deactivate wrr

@enduml

PlantUML version 1.2021.7(Sun May 23 19:40:07 WIB 2021)
(GPL source distribution)
Java Runtime: Java(TM) SE Runtime Environment
JVM: Java HotSpot(TM) 64-Bit Server VM
Default Encoding: UTF-8
Language: en
Country: US
--></g></svg>